<?xml version="1.0" encoding="UTF-8" standalone="no"?>
<!-- Created with Inkscape (http://www.inkscape.org/) -->

<svg
   version="1.1"
   id="svg1"
   width="633.33331"
   height="588"
   viewBox="0 0 633.33331 588"
   sodipodi:docname="Panda Brand.svg"
   inkscape:version="1.4.3 (0d15f750, 2025-12-25)"
   xmlns:inkscape="http://www.inkscape.org/namespaces/inkscape"
   xmlns:sodipodi="http://sodipodi.sourceforge.net/DTD/sodipodi-0.dtd"
   xmlns="http://www.w3.org/2000/svg"
   xmlns:svg="http://www.w3.org/2000/svg">
  <defs
     id="defs1" />
  <sodipodi:namedview
     id="namedview1"
     pagecolor="#ffffff"
     bordercolor="#000000"
     borderopacity="0.25"
     inkscape:showpageshadow="2"
     inkscape:pageopacity="0.0"
     inkscape:pagecheckerboard="0"
     inkscape:deskcolor="#d1d1d1"
     inkscape:zoom="0.52514899"
     inkscape:cx="181.85315"
     inkscape:cy="282.77689"
     inkscape:window-width="1317"
     inkscape:window-height="772"
     inkscape:window-x="363"
     inkscape:window-y="168"
     inkscape:window-maximized="0"
     inkscape:current-layer="g1" />
  <g
     inkscape:groupmode="layer"
     inkscape:label="Image"
     id="g1">
    <path
       style="fill:#ffffff"
       d="m 582.60205,36.487368 c -0.0355,-0.240673 -0.0114,-1.578482 0.0535,-2.972909 0.0653,-1.400729 -0.36374,-3.270745 -0.95864,-4.178674 -0.99532,-1.519049 -0.99251,-1.675681 0.0371,-2.070776 1.4448,-0.554424 2.98511,0.446256 4.39777,2.857073 1.02876,1.755671 1.03918,2.1228 0.11444,4.032187 -0.8979,1.853962 -3.47167,3.501755 -3.64419,2.333099 z"
       id="path74" />
    <path
       style="fill:none"
       d="m 583.56624,48.216447 c -0.73306,-0.825 -2.44398,-3.051946 -3.80205,-4.948768 l -2.46922,-3.448769 1.50084,-1.051231 c 1.96324,-1.375106 2.5375,-1.326212 2.5375,0.216046 0,0.697002 1.37119,3.091363 3.04709,5.320802 2.88187,3.833727 3.27937,5.41192 1.36311,5.41192 -0.46444,0 -1.44422,-0.675 -2.17727,-1.5 z"
       id="path73" />
    <path
       style="fill:none"
       d="m 570.99998,38.750617 c 0,-10.293549 0.12782,-11.665921 1.11045,-11.922885 1.51313,-0.395692 2.6252,0.838784 1.94358,2.157513 -0.30263,0.585494 -0.27459,3.314514 0.0623,6.064488 0.42254,3.449121 0.38538,5.498484 -0.11981,6.607245 -0.44195,0.96999 -0.55599,3.018628 -0.28761,5.166714 0.42774,3.423535 0.38453,3.559422 -1.13209,3.559422 h -1.57682 z"
       id="path72" />
    <path
       style="fill:#000000"
       d="m 500.79998,192.24979 c -0.44,-0.44 -0.8,-1.35613 -0.8,-2.03584 0,-2.52954 -3.98715,-16.46818 -7.19974,-25.16947 -13.65712,-36.99028 -38.22163,-71.030966 -68.81092,-95.355882 -3.47747,-2.765318 -7.86663,-6.143088 -9.7537,-7.506155 -4.27948,-3.09115 -4.68645,-4.063668 -2.37219,-5.668663 4.24276,-2.942446 22.01973,-9.702544 32.80322,-12.474169 13.04384,-3.352591 18.10859,-3.94552 33.66667,-3.941343 13.35721,0.0036 15.39038,0.16122 22.77266,1.765596 24.27714,5.276104 41.27642,16.86365 50.89215,34.690601 3.48586,6.462548 5.10851,11.310151 6.33296,18.919369 2.94406,18.295616 -1.54185,36.894476 -13.64568,56.575946 -7.90543,12.85464 -20.13323,25.60935 -35.57649,37.10954 -5.29871,3.94581 -6.86939,4.53001 -8.30894,3.09047 z"
       id="path71" />
    <path
       style="fill:#000000"
       d="m 117.90814,190.60181 c -18.816129,-12.885 -35.069889,-31.28038 -43.609819,-49.35592 -6.56125,-13.88748 -9.8349,-30.30664 -8.3343,-41.801086 2.14799,-16.453358 6.87222,-26.112538 18.2896,-37.395023 7.08795,-7.004206 12.18356,-10.372857 22.233609,-14.698391 22.56321,-9.711195 51.85091,-10.161704 81.05112,-1.246746 6.99347,2.135138 24.29242,9.294392 25.88932,10.714424 1.68673,1.499899 0.8448,2.9979 -3.29567,5.863803 -19.70331,13.638011 -39.6184,34.307183 -54.63464,56.703359 -14.12172,21.06204 -25.91415,47.79247 -30.12458,68.28475 -0.78737,3.83216 -1.66331,5.37881 -3.04627,5.37881 -0.46396,0 -2.45223,-1.10159 -4.41837,-2.44798 z"
       id="path70" />
    <path
       style="fill:#000000"
       d="m 517.84109,311.91161 c 0.82927,-0.15946 2.02927,-0.15341 2.66667,0.0135 0.63739,0.16686 -0.0411,0.29733 -1.50778,0.28993 -1.46666,-0.007 -1.98817,-0.14393 -1.15889,-0.30339 z"
       id="path69" />
    <path
       style="fill:#000000"
       d="m 512.66665,314.71645 c 0,-0.55 0.29058,-1 0.64574,-1 0.35516,0 0.47307,0.45 0.26201,1 -0.21105,0.55 -0.50164,1 -0.64574,1 -0.14411,0 -0.26201,-0.45 -0.26201,-1 z"
       id="path68" />
    <path
       style="fill:#000000"
       d="m 536.47143,321.21645 c -0.19287,-1.00833 -0.087,-2.28333 0.23534,-2.83333 0.40327,-0.68817 0.59232,-0.11648 0.60627,1.83333 0.0232,3.24653 -0.33134,3.66783 -0.84161,1 z"
       id="path67" />
    <path
       style="fill:#000000"
       d="m 510.86643,321.04979 c 0,-2.01667 0.12497,-2.84167 0.27772,-1.83334 0.15275,1.00834 0.15275,2.65834 0,3.66667 -0.15275,1.00833 -0.27772,0.18333 -0.27772,-1.83333 z"
       id="path66" />
    <path
       style="fill:#000000"
       d="m 534.71351,326.21645 c -0.0258,-1.375 0.25314,-2.5 0.61981,-2.5 0.79608,0 0.79608,1.81408 0,3.66667 -0.45962,1.06958 -0.58223,0.8388 -0.61981,-1.16667 z"
       id="path65" />
    <path
       style="fill:#000000"
       d="m 512.77191,327.04979 c 0,-0.91667 0.15132,-1.29167 0.33626,-0.83334 0.18494,0.45834 0.18494,1.20834 0,1.66667 -0.18494,0.45833 -0.33626,0.0833 -0.33626,-0.83333 z"
       id="path64" />
    <path
       style="fill:#000000"
       d="m 392.66665,333.64874 c -34.98052,-3.43967 -62.54459,-30.00922 -67.70857,-65.26562 -4.9067,-33.49988 13.69198,-66.10224 45.62963,-79.98597 11.26408,-4.89664 27.64376,-7.12613 39.74561,-5.40988 28.18149,3.99661 52.30481,23.83364 61.28798,50.39819 4.11181,12.15922 4.22718,13.95673 3.77948,58.88542 -0.39074,39.21216 -0.43424,40.2456 -1.73413,41.19804 -1.1002,0.80612 -4.03785,0.94231 -16.80128,0.7789 -10.52499,-0.13475 -15.71254,-0.44303 -16.23334,-0.9647 -0.42096,-0.42167 -0.7652,-1.92167 -0.76497,-3.33333 5e-4,-3.17811 -0.86887,-4.9 -2.47397,-4.9 -0.67465,0 -3.54657,1.05722 -6.38204,2.34938 -6.78039,3.08993 -13.69389,4.92762 -22.67773,6.02801 -8.16591,1.00021 -7.80058,0.99504 -15.66667,0.22156 z"
       id="path63" />
    <path
       style="fill:#ffffff"
       d="m 412.85744,295.31995 c 15.58205,-5.2942 26.47588,-20.22527 26.47588,-36.28779 0,-11.28087 -3.21814,-19.53517 -10.7682,-27.61971 -11.95449,-12.80075 -31.18028,-16.05076 -46.73665,-7.90056 -10.91856,5.7204 -18.26417,15.9785 -20.24248,28.26854 -2.84885,17.69819 5.36109,33.65304 21.41734,41.62155 9.45147,4.69064 19.74681,5.35206 29.85411,1.91797 z"
       id="path62" />
    <path
       style="fill:#000000"
       d="m 149.83333,333.45509 c -1.08813,-0.82601 -1.16585,-3.5286 -1.15445,-40.14547 0.0133,-42.66432 0.33543,-47.75248 3.66762,-57.9265 9.76977,-29.82948 34.88636,-50.08798 65.86766,-53.12742 22.44014,-2.20151 45.92249,6.64605 61.91299,23.32724 9.75851,10.18001 15.62854,21.07415 19.29004,35.80018 1.99908,8.04004 2.17415,23.24951 0.36449,31.66667 -5.2886,24.59853 -20.11156,43.49897 -42.5471,54.25086 -6.9189,3.31578 -11.7065,4.80695 -19.39408,6.04057 -14.49375,2.3258 -29.29359,0.65475 -42.40041,-4.78743 -4.8617,-2.01867 -6.31326,-1.64287 -6.64836,1.72123 -0.39342,3.94971 -1.19714,4.11041 -20.44007,4.0869 -13.37147,-0.0163 -17.61928,-0.22435 -18.51833,-0.90683 z"
       id="path61" />
    <path
       style="fill:#ffffff"
       d="m 232.3586,294.98869 c 8.55188,-1.5809 16.6457,-6.81371 22.69124,-14.67035 3.80402,-4.94362 5.41477,-8.57777 6.69516,-15.10557 3.62085,-18.46014 -7.03711,-36.34938 -25.31066,-42.48361 -5.80657,-1.9492 -15.12315,-2.2901 -20.76768,-0.7599 -14.13385,3.83159 -24.62006,15.16486 -27.48457,29.70474 -1.8947,9.61726 0.52276,20.35342 6.33448,28.13188 4.71375,6.30893 9.44249,10.08738 16.16602,12.91728 7.03552,2.96121 13.9841,3.68746 21.67601,2.26553 z"
       id="path60" />
    <path
       style="fill:none"
       d="m 515.71295,337.24096 c -1.80786,-0.55183 -3.70429,-1.42059 -4.21428,-1.93059 -0.50999,-0.50999 -1.22274,-0.92725 -1.58389,-0.92725 -1.34849,0 -4.65973,-4.43245 -5.35383,-7.16667 -0.39559,-1.55833 -0.98364,-2.83333 -1.30678,-2.83333 -0.75325,0 -0.76851,-6.31626 -0.0189,-7.84238 0.31271,-0.63669 1.13771,-2.34642 1.83333,-3.79939 2.80549,-5.85998 8.08566,-9.0249 15.05664,-9.0249 2.4978,0 4.54145,0.29059 4.54145,0.64575 0,0.35516 0.4417,0.47624 0.98156,0.26908 1.47076,-0.56438 6.8569,3.14855 7.61853,5.25184 0.36514,1.00833 0.95565,1.83333 1.31226,1.83333 0.92567,0 1.68363,4.00403 0.90529,4.78236 -0.42298,0.42298 -0.80697,-0.18311 -1.09765,-1.73256 -0.24593,-1.31072 -0.73352,-2.38313 -1.08357,-2.38313 -0.35005,0 -0.63646,-0.41013 -0.63646,-0.91141 0,-1.05516 -3.7426,-3.66393 -8.11185,-5.65436 -2.19304,-0.99904 -3.74977,-1.2692 -5.62667,-0.97644 -3.41737,0.53304 -9.05105,4.29299 -11.57528,7.7254 -1.84787,2.51272 -2.01953,3.19579 -2.01953,8.03612 0,4.2965 0.27713,5.7384 1.47568,7.67768 3.23515,5.23459 6.307,6.91666 12.82934,7.02501 5.40354,0.0898 8.9419,-1.24514 11.8679,-4.47737 1.27531,-1.40878 2.05258,-1.81913 2.53395,-1.33776 0.9253,0.9253 -5.01471,6.81073 -7.33694,7.26953 -0.9368,0.18508 -2.62457,0.62611 -3.7506,0.98006 -2.53145,0.79572 -3.13566,0.7541 -7.2397,-0.49862 z"
       id="path59" />
    <path
       style="fill:#000000"
       d="m 520.05549,448.78333 c -1.1188,-1.34806 -0.72063,-44.67039 0.42103,-45.8109 1.34936,-1.34799 7.70146,-1.55119 10.26482,-0.32836 2.37734,1.1341 2.69909,1.60118 8.07442,11.72176 6.10917,11.50221 7.64461,14.32523 9.0022,16.55122 1.30234,2.1354 1.35427,2.15515 1.75296,0.66667 0.22597,-0.84366 0.41955,-7.38393 0.43017,-14.53393 0.0106,-7.15 0.26399,-13.38563 0.56304,-13.85696 0.96108,-1.5147 5.2952,-1.81031 6.78427,-0.46273 1.26146,1.14161 1.31825,2.1219 1.31825,22.75635 0,20.67445 -0.055,21.6183 -1.33333,22.89667 -1.00679,1.00679 -2.22223,1.33333 -4.96283,1.33333 -5.60504,0 -5.61932,-0.0181 -17.05868,-21.66666 -2.32501,-4.4 -4.73234,-8.84027 -5.3496,-9.86727 l -1.12231,-1.86726 -0.41085,1.53393 c -0.22597,0.84366 -0.41496,7.88439 -0.41996,15.64607 -0.005,7.76168 -0.1912,14.58668 -0.41377,15.16667 -0.52853,1.37733 -6.41879,1.47217 -7.53983,0.1214 z"
       id="path58" />
    <path
       style="fill:#000000"
       d="m 500.13332,448.91645 c -1.04549,-1.04549 -1.14823,-43.97032 -0.10988,-45.91049 0.53407,-0.99792 1.40841,-1.28951 3.86667,-1.28951 1.7471,0 3.53654,0.36 3.97654,0.8 0.59048,0.59048 0.8,6.66667 0.8,23.2 0,16.53334 -0.20952,22.60953 -0.8,23.2 -0.44,0.44 -2.18,0.8 -3.86667,0.8 -1.68666,0 -3.42666,-0.36 -3.86666,-0.8 z"
       id="path57" />
    <path
       style="fill:#000000"
       d="m 456.02344,448.42695 c -0.42689,-0.79766 -0.69012,-8.16288 -0.69012,-19.30988 0,-20.83638 0.5296,-19.40062 -7.15617,-19.40062 -5.18021,0 -6.17716,-0.61081 -6.17716,-3.78463 0,-4.03912 1.05255,-4.26339 19.05984,-4.061 l 15.92301,0.17897 0.93153,1.94443 c 0.64672,1.34992 0.74698,2.47099 0.32791,3.66666 -0.57262,1.63382 -0.87672,1.73182 -5.92295,1.90877 -4.02323,0.14107 -5.5224,0.45639 -6.15268,1.29408 -0.61922,0.823 -0.83333,5.7792 -0.83333,19.29002 0,20.61734 0.30186,19.5627 -5.59938,19.5627 -2.30385,0 -3.18409,-0.30591 -3.7105,-1.2895 z"
       id="path56" />
    <path
       style="fill:#000000"
       d="m 357.16666,448.99639 c -1.07438,-0.62577 -1.16667,-2.44637 -1.16667,-23.01375 v -22.33422 l 2.31192,-0.96598 c 2.71946,-1.13627 10.7652,-1.26203 17.02141,-0.26606 4.93582,0.78576 9.76722,3.62892 11.76108,6.92108 1.87198,3.09094 1.72309,11.75598 -0.26646,15.50704 -2.58285,4.86965 -8.77354,8.20529 -15.22841,8.20529 -5.30208,0 -5.59954,0.42369 -5.59954,7.97583 0,5.10711 -0.23643,6.83202 -1.04762,7.64321 -1.18767,1.18768 -5.96398,1.38862 -7.78571,0.32756 z"
       id="path55" />
    <path
       style="fill:#ffffff"
       d="m 375.83434,423.54242 c 3.29688,-3.06101 3.13885,-9.551 -0.30049,-12.34021 -1.52205,-1.23434 -2.54497,-1.4808 -5.53386,-1.33333 l -3.66667,0.18091 -0.19172,6.99062 c -0.16667,6.07692 -0.036,7.10624 1,7.87523 1.6434,1.2199 6.77248,0.40964 8.69274,-1.37322 z"
       id="path54" />
    <path
       style="fill:#000000"
       d="m 321.10882,448.87847 c -1.04265,-0.7624 -1.14779,-2.81625 -1.16578,-22.77116 -0.0173,-19.17968 0.11335,-22.06652 1.04068,-22.99535 0.87127,-0.87268 3.13029,-1.09948 12.66256,-1.27131 10.98107,-0.19795 11.67574,-0.1355 12.9779,1.16666 0.7835,0.7835 1.37581,2.24395 1.37581,3.39231 0,2.74858 -1.77378,3.31683 -10.35328,3.31683 -7.94462,0 -8.31339,0.25137 -8.31339,5.66667 0,5.3336 0.4492,5.66667 7.64251,5.66667 6.76852,0 8.35749,0.68195 8.35749,3.58686 0,3.27222 -1.38033,3.99917 -8.09009,4.26065 -7.52752,0.29334 -7.90991,0.62521 -7.90991,6.86494 0,2.76042 0.31729,4.7155 0.83334,5.13493 0.45833,0.37253 4.16623,0.78758 8.23976,0.92235 4.95207,0.16384 7.76883,0.54579 8.5,1.15261 1.56043,1.29504 1.43464,5.18154 -0.19594,6.0542 -1.93781,1.03709 -24.15664,0.90876 -25.60166,-0.14786 z"
       id="path53" />
    <path
       style="fill:#000000"
       d="m 272.38094,448.66883 c -0.90905,-0.90905 -1.04762,-3.89029 -1.04762,-22.53924 0,-17.49855 0.17565,-21.73207 0.94535,-22.78572 0.80767,-1.10563 1.94605,-1.32814 7.81724,-1.52793 15.73769,-0.53553 23.93206,2.86636 28.66555,11.90051 1.43385,2.7366 1.56805,3.7902 1.52838,12 -0.0497,10.29085 -0.96466,13.24546 -5.45225,17.6068 -5.03797,4.89624 -10.53443,6.38285 -23.62331,6.38934 -6.19275,0.003 -8.00006,-0.21048 -8.83334,-1.04376 z"
       id="path52" />
    <path
       style="fill:#ffffff"
       d="m 294.84294,439.81351 c 1.21431,-0.75048 2.94641,-2.65434 3.84911,-4.23078 1.46212,-2.55342 1.64127,-3.64227 1.64127,-9.97552 0,-6.82606 -0.0802,-7.22438 -2.01244,-10 -2.58222,-3.7092 -6.11887,-5.44458 -11.76958,-5.77516 l -4.44869,-0.26026 -0.71426,2.57233 c -1.04567,3.76587 -0.95289,27.73181 0.11164,28.83928 1.30567,1.35834 10.56592,0.54642 13.34295,-1.16989 z"
       id="path51" />
    <path
       style="fill:#000000"
       d="m 207.54224,448.99203 c -0.94095,-0.94094 -0.30661,-3.1731 6.1408,-21.60891 2.8211,-8.06667 5.5229,-15.91092 6.004,-17.43168 1.0881,-3.43951 2.92763,-7.0775 3.90597,-7.72478 0.40718,-0.26938 2.71882,-0.49438 5.13699,-0.5 5.35791,-0.0124 6.00395,0.55834 8.4033,7.42425 0.94157,2.69438 3.17935,9.09888 4.97284,14.23221 9.58641,27.43818 9.34637,25.89695 4.0805,26.20081 -1.91402,0.11045 -4.01746,-0.0868 -4.67433,-0.43835 -0.65686,-0.35155 -1.77863,-2.35827 -2.49283,-4.45938 -0.71419,-2.10112 -1.70717,-4.22886 -2.20663,-4.72831 -0.66397,-0.66398 -3.00111,-0.90536 -8.69381,-0.89789 -4.28214,0.006 -8.11617,0.23061 -8.52007,0.5 -0.4039,0.26938 -1.39469,2.48875 -2.20177,4.93193 -0.80707,2.44318 -1.92615,4.61818 -2.48683,4.83333 -1.7115,0.65677 -6.59919,0.43572 -7.36813,-0.33323 z"
       id="path50" />
    <path
       style="fill:#ffffff"
       d="m 233.71584,430.16202 c 0.18737,-0.48827 -0.80767,-4.39342 -2.21121,-8.6781 -2.31662,-7.07214 -2.65797,-7.71245 -3.70281,-6.94556 -1.30489,0.95776 -6.01151,14.33675 -5.50651,15.65275 0.47276,1.23199 10.94685,1.20531 11.42053,-0.0291 z"
       id="path49" />
    <path
       style="fill:#000000"
       d="m 165.82249,448.55531 c -1.04693,-1.15684 -1.15583,-3.32576 -1.15583,-23.02021 0,-25.86964 -0.79949,-23.82647 9.31501,-23.80544 17.08912,0.0355 24.94523,3.84439 28.73993,13.9339 1.19358,3.17353 1.35889,4.79608 1.1261,11.05289 -0.3327,8.9421 -1.98787,13.2496 -6.67735,17.37744 -4.57609,4.02803 -8.94117,5.19657 -20.51452,5.49176 -8.86806,0.22619 -9.77418,0.14001 -10.83334,-1.03034 z"
       id="path48" />
    <path
       style="fill:#ffffff"
       d="m 185.3629,441.05259 c 5.7177,-1.58842 9.0702,-8.4636 8.46101,-17.3515 -0.29574,-4.31479 -0.69988,-5.75892 -2.25872,-8.07123 -2.66111,-3.94737 -6.68115,-5.87068 -12.32077,-5.89463 -4.03017,-0.0171 -4.45789,0.11421 -4.82423,1.48122 -0.79765,2.97642 -0.46673,28.85347 0.3798,29.7 0.96507,0.96507 7.28582,1.04653 10.56291,0.13614 z"
       id="path47" />
    <path
       style="fill:#000000"
       d="m 115.16666,448.99639 c -1.07381,-0.62544 -1.16585,-2.41459 -1.15646,-22.47973 0.006,-11.99011 0.23673,-22.15644 0.51357,-22.59183 1.27881,-2.01117 5.99953,-2.70363 10.29632,-1.51031 2.78937,0.77467 3.32891,1.59141 12.85007,19.45204 6.83032,12.8129 6.9965,12.699 6.9965,-4.79508 0,-11.89127 0.11656,-13.25386 1.21916,-14.2517 1.45633,-1.31796 4.65786,-1.40732 6.28084,-0.1753 1.0698,0.8121 1.16667,2.71878 1.16667,22.96343 v 22.07781 l -1.67463,1.09726 c -2.16089,1.41586 -8.40084,1.00848 -10.25501,-0.66952 -0.706,-0.63892 -4.68565,-7.58539 -8.84366,-15.43661 -5.41762,-10.22962 -7.89065,-14.27761 -8.7267,-14.28434 -1.07651,-0.009 -1.16667,1.13941 -1.16667,14.85728 0,10.67407 -0.22561,15.09227 -0.8,15.66666 -0.96951,0.96951 -5.08832,1.01865 -6.7,0.0799 z"
       id="path46" />
    <path
       style="fill:#000000"
       d="m 66.215151,448.99828 c -0.86922,-0.86923 -0.42347,-2.85776 2.45424,-10.94849 1.17374,-3.3 4.19049,-11.95811 6.70388,-19.24025 2.51339,-7.28213 5.0364,-13.95237 5.6067,-14.82275 1.26263,-1.92703 2.9964,-2.41241 7.65482,-2.14305 4.46887,0.25839 5.21437,1.17295 8.31943,10.20605 1.26039,3.66666 4.151999,11.91666 6.425799,18.33333 5.27455,14.88479 5.98129,17.4354 5.12612,18.5 -0.73334,0.91293 -6.99688,1.13651 -8.31822,0.29692 -0.446639,-0.2838 -1.651309,-2.6042 -2.677039,-5.15646 l -1.86497,-4.64046 -8.22922,-0.18777 c -5.31222,-0.12121 -8.54488,0.0742 -9.11975,0.55131 -0.4898,0.40649 -1.39552,2.29099 -2.01273,4.18777 -1.58779,4.87958 -2.56393,5.78202 -6.25421,5.78202 -1.70317,0 -3.41985,-0.32318 -3.81485,-0.71817 z"
       id="path45" />
    <path
       style="fill:#ffffff"
       d="m 92.416491,430.07347 c 0.38819,-1.0116 -1.58581,-7.65913 -3.92263,-13.20963 -1.31151,-3.11515 -1.36363,-3.15409 -2.34548,-1.75231 -0.55229,0.78851 -2.02648,4.4453 -3.27597,8.1262 -1.78997,5.27315 -2.08805,6.8091 -1.40544,7.24209 0.4765,0.30225 3.05077,0.55414 5.72062,0.55976 3.65447,0.008 4.94685,-0.2311 5.2289,-0.96611 z"
       id="path44" />
    <path
       style="fill:#000000"
       d="m 34.055501,448.78333 c -1.16854,-1.40801 -0.71547,-44.67644 0.48029,-45.8677 1.13759,-1.1333 17.35006,-1.1357 21.20437,-0.003 3.81194,1.12011 8.49603,5.40494 9.4729,8.66544 1.93554,6.46026 -0.17158,14.28391 -4.78198,17.75529 -2.92396,2.20158 -7.83159,3.71657 -12.03942,3.71657 -2.04963,0 -3.84457,0.35378 -4.22795,0.83333 -0.36641,0.45833 -0.80894,3.93831 -0.98339,7.73328 -0.22552,4.90584 -0.58641,7.07041 -1.24875,7.48979 -1.49514,0.94668 -7.01006,0.72062 -7.87607,-0.32286 z"
       id="path43" />
    <path
       style="fill:#ffffff"
       d="m 52.310821,424.63284 c 0.52868,-0.20287 1.60657,-1.70192 2.39529,-3.33121 1.83539,-3.7914 1.33181,-7.05871 -1.49489,-9.69925 -1.69375,-1.5822 -2.59173,-1.88593 -5.57572,-1.88593 -2.04158,0 -3.76684,0.33983 -4.04982,0.7977 -0.759,1.22809 -0.25173,13.39977 0.60129,14.4276 0.72695,0.87592 5.51023,0.69403 8.12385,-0.30891 z"
       id="path42" />
    <path
       style="fill:#000000"
       d="m 582.76449,449.66642 c -6.12261,-1.20379 -10.58071,-5.04415 -13.52786,-11.65334 -1.22562,-2.74854 -1.47833,-4.57125 -1.52,-10.96329 -0.043,-6.5944 0.17886,-8.27273 1.58622,-12 2.36697,-6.26874 6.98941,-10.7523 12.99902,-12.60848 5.63948,-1.74186 8.40251,-1.74831 13.95733,-0.0326 3.49481,1.07943 4.60613,1.75818 5.40356,3.30022 1.22662,2.37202 1.28513,4.70139 0.15686,6.2444 -0.79512,1.08739 -1.0823,1.05434 -4.68568,-0.53925 -6.91532,-3.05828 -12.74515,-1.89411 -16.05173,3.2054 -2.52858,3.89964 -3.28763,7.34549 -2.89704,13.15157 0.37051,5.50757 1.84732,9.1855 4.79212,11.93458 2.57291,2.4019 10.10696,2.76502 14.62883,0.70506 3.77195,-1.71832 5.06053,-1.10269 5.06053,2.4177 0,5.67246 -9.40144,8.90263 -19.90216,6.83803 z"
       id="path41" />
    <path
       style="fill:#000000"
       d="m 407.95918,449.51486 c -5.88196,-1.66684 -10.61724,-6.3581 -12.41679,-12.30138 -1.7462,-5.76704 -1.55161,-17.2895 0.37595,-22.26176 3.25305,-8.39145 10.08544,-13.1335 19.7957,-13.7393 14.94137,-0.93216 23.58558,7.75956 23.61137,23.74114 0.019,11.76036 -4.26984,19.9385 -12.32542,23.5028 -4.11207,1.81944 -14.34766,2.38845 -19.04081,1.0585 z"
       id="path40" />
    <path
       style="fill:#ffffff"
       d="m 421.55253,441.47377 c 3.03812,-1.26941 5.49806,-4.44353 6.73123,-8.68551 1.32057,-4.54261 1.32489,-7.93138 0.0174,-13.67983 -1.64657,-7.23939 -6.18261,-10.71302 -12.80439,-9.8054 -4.04987,0.5551 -6.88368,2.43687 -8.85555,5.88048 -1.4935,2.60821 -1.64127,3.58656 -1.64127,10.86628 0,6.76677 0.21149,8.41107 1.37196,10.66666 2.46494,4.79107 9.68474,7.05363 15.18058,4.75732 z"
       id="path39" />
    <path
       style="fill:#000000"
       d="m 549.80094,517.09016 c -1.11068,-1.12426 -1.11858,-1.29418 -0.10714,-2.30562 0.96049,-0.96049 3.25627,-1.08492 19.07565,-1.03387 l 17.98374,0.058 2.12595,-1.62155 c 2.53281,-1.93186 3.81301,-1.62288 6.97628,1.68375 1.446,1.51154 2.04394,2.66538 1.762,3.4001 -0.38751,1.00984 -2.55072,1.10848 -23.5221,1.0725 -21.42268,-0.0367 -23.18218,-0.12753 -24.29438,-1.25334 z"
       id="path38" />
    <path
       style="fill:#000000"
       d="m 169.85009,517.21645 c -0.15927,-0.75023 1.84013,-3.38857 5.60146,-7.3915 3.21703,-3.42366 7.08236,-8.07366 8.58961,-10.33333 1.50726,-2.25968 3.24336,-4.29748 3.85801,-4.52845 1.29215,-0.48558 5.17684,2.46671 5.53615,4.20737 0.39671,1.92187 -19.85324,19.21258 -22.50074,19.21258 -0.46025,0 -0.94827,-0.525 -1.08449,-1.16667 z"
       id="path37" />
    <path
       style="fill:#000000"
       d="m 531.62869,534.36192 c -3.393,-1.25516 -16.14445,-17.07621 -17.65026,-21.89915 -0.29988,-0.96047 -1.19847,-3.39632 -1.99688,-5.41298 -1.80656,-4.56314 -2.91873,-10.66284 -2.09447,-11.4871 0.7968,-0.7968 5.19524,0.048 6.13304,1.17803 0.50756,0.61156 0.53424,1.60938 0.0864,3.23125 -0.57195,2.07144 -0.3615,2.91675 1.79553,7.21214 1.34388,2.67612 3.22965,6.07765 4.19061,7.55895 2.51195,3.87213 8.6456,9.25161 13.43903,11.78662 2.94704,1.55855 4.13494,2.56719 4.13494,3.51098 0,0.79852 -0.52931,1.42095 -1.33333,1.56791 -0.73334,0.13405 -2.23449,0.9221 -3.3359,1.75122 -1.40356,1.0566 -2.41119,1.35634 -3.36873,1.00213 z"
       id="path36" />
    <path
       style="fill:#000000"
       d="m 474.11005,535.55985 c -1.35641,-1.35641 -0.87376,-2.37642 3.30783,-6.99064 2.24651,-2.47894 5.41551,-6.23682 7.04222,-8.35086 3.21321,-4.17579 9.51315,-16.09852 9.52966,-18.035 0.0149,-1.74748 1.90942,-5.1363 2.86068,-5.11704 1.11242,0.0225 7.14954,4.50456 7.14954,5.30792 0,0.35465 -0.72961,1.12288 -1.62137,1.70718 -0.89175,0.5843 -2.4305,2.61622 -3.41945,4.51537 -4.86891,9.35018 -14.03867,20.4104 -21.34911,25.75052 -2.07278,1.51411 -2.9088,1.80375 -3.5,1.21255 z"
       id="path35" />
    <path
       style="fill:#000000"
       d="m 558.44443,551.27201 c -0.70989,-0.70989 -0.52481,-28.09387 0.19287,-28.53742 0.35053,-0.21664 1.73717,0.0657 3.08142,0.62732 3.4649,1.44773 19.0838,1.46406 20.28126,0.0212 1.26154,-1.52007 4.13418,-1.1973 6.17348,0.69365 1.84425,1.71008 2.38701,3.88126 1.15985,4.63968 -0.38633,0.23877 -0.66666,3.88135 -0.66666,8.66261 0,4.53783 -0.26993,8.96056 -0.59984,9.8283 -0.37416,0.9841 -1.49226,1.85159 -2.97176,2.30566 -2.33256,0.71589 -2.3843,0.69043 -3.11862,-1.5346 -0.92415,-2.8002 -1.80291,-3.03937 -10.25182,-2.7902 l -6.60871,0.19491 -0.75091,2.23475 c -0.93811,2.79186 -4.55223,5.02247 -5.92056,3.65414 z"
       id="path34" />
    <path
       style="fill:#ffffff"
       d="m 581.34843,539.71645 c 0.34712,-0.55 0.63573,-3.03242 0.64134,-5.5165 0.01,-4.23893 -0.0949,-4.55645 -1.69986,-5.16666 -1.8723,-0.71185 -11.72641,-0.87231 -14.12326,-0.22998 -1.40297,0.37598 -1.5,0.76035 -1.5,5.94201 0,6.57711 -0.48623,6.25502 9.19199,6.08888 5.2774,-0.0906 7.00416,-0.3483 7.48979,-1.11775 z"
       id="path33" />
    <path
       style="fill:#000000"
       d="m 245.61858,560.99729 c -0.52356,-0.57887 -0.95192,-1.55387 -0.95192,-2.16666 0,-1.00112 1.33602,-1.12137 13.16667,-1.18504 7.24166,-0.039 13.76666,-0.11398 14.49999,-0.16667 1.16233,-0.0835 1.37609,-0.69434 1.66667,-4.76247 0.18333,-2.56666 0.18333,-6.31666 0,-8.33333 l -0.33333,-3.66667 h -8.42738 c -7.25316,0 -8.61701,-0.17128 -9.78837,-1.2293 -2.77933,-2.5104 -1.30811,-3.05544 8.7802,-3.25279 l 9.43555,-0.18457 v -5.66667 -5.66667 h -9.39592 c -9.9818,0 -11.12382,-0.31668 -12.30022,-3.41085 -0.33578,-0.88317 -1.37017,-1.64419 -2.60276,-1.91492 -3.35602,-0.7371 -3.79206,-2.55132 -1.49334,-6.21335 1.07977,-1.72015 2.1633,-3.98379 2.40786,-5.03032 0.24455,-1.04652 0.91964,-2.62771 1.5002,-3.51376 l 1.05556,-1.61099 2.20316,1.68043 c 2.10248,1.60364 2.61294,1.68043 11.16989,1.68043 10.52423,0 10.91924,-0.30322 7.71162,-5.91955 -3.12416,-5.4702 -2.42215,-7.67938 1.80313,-5.67435 4.2208,2.0029 6.69602,4.89203 7.21991,8.42723 l 0.46927,3.16667 2.79249,0.0413 c 10.14722,0.15023 16.19978,-0.19921 17.11864,-0.98834 2.32894,-2.0001 3.86223,-1.69269 6.65178,1.33362 1.4788,1.60431 2.68873,3.18689 2.68873,3.51685 0,0.90556 -1.4426,1.85903 -3.59112,2.37351 -2.6112,0.62528 -6.40888,3.61511 -6.40888,5.04557 0,0.64037 0.6,1.92708 1.33333,2.85936 2.86107,3.63726 2.40117,3.81809 -9.71049,3.81809 -6.3379,0 -11.59331,0.29407 -12.33334,0.69012 -1.06573,0.57037 -1.2895,1.42009 -1.2895,4.89668 0,5.69762 0.83699,6.4132 7.50134,6.4132 4.42792,0 5.31148,-0.20907 7.04374,-1.66667 1.0894,-0.91666 2.38742,-1.66585 2.88449,-1.66486 0.49707,9.9e-4 2.23163,1.14686 3.85458,2.54637 4.37842,3.77564 3.66922,4.56429 -4.39935,4.89222 -3.60331,0.14645 -6.93045,0.50244 -7.39366,0.79109 -0.57587,0.35886 0.431,1.37502 3.18409,3.21346 4.92396,3.28809 6.22896,5.51592 5.61792,9.59063 -0.39163,2.61157 -0.29586,2.96443 0.80463,2.96443 0.68705,0 2.08841,-0.77818 3.11414,-1.72929 2.40982,-2.23451 4.18095,-1.80663 7.43615,1.7965 4.18131,4.6282 5.03037,4.50081 -31.52949,4.73045 -28.6696,0.18007 -32.3195,0.0865 -33.16666,-0.85016 z"
       id="path32" />
    <path
       style="fill:#ffffff"
       d="m 295.11511,519.39426 c 1.91841,-1.34371 5.16558,-6.9971 4.43728,-7.72541 -0.31986,-0.31986 -10.11328,-0.665 -21.76315,-0.76698 l -21.18157,-0.18542 -0.33028,1.66667 c -0.18165,0.91667 -0.76838,2.51598 -1.30384,3.55403 -0.53546,1.03804 -0.97356,2.46304 -0.97356,3.16666 0,1.23266 0.7239,1.27931 19.85166,1.27931 16.46754,0 20.09233,-0.16857 21.26346,-0.98886 z"
       id="path31" />
    <path
       style="fill:#ffffff"
       d="m 291.77341,556.88312 c 1.16962,-1.87882 0.0311,-4.79684 -3.84124,-9.8451 -0.98937,-1.2898 -1.90385,-3.0898 -2.03218,-4 -0.19773,-1.40243 -0.58931,-1.6549 -2.56667,-1.6549 h -2.33333 l -0.0726,6.33333 c -0.0837,7.30238 0.39938,9.11623 2.53666,9.52481 3.3549,0.64135 7.80657,0.44948 8.30934,-0.35814 z"
       id="path30" />
    <path
       style="fill:#000000"
       d="m 427.8415,563.00096 c -0.63717,-0.37122 -1.48515,-1.28531 -1.8844,-2.03131 -0.94664,-1.76881 -0.87032,-60.88019 0.0809,-62.65755 0.63363,-1.18396 0.72997,-1.18098 2.80906,0.0867 1.86386,1.13644 3.37685,1.31302 11.26844,1.31518 8.72683,0.002 9.1991,-0.0678 11.07564,-1.64684 l 1.96013,-1.64934 2.59102,2.24368 c 2.57557,2.2303 2.58521,2.25704 1.61609,4.48267 -1.23379,2.83346 -1.74356,19.99945 -0.7081,23.84484 0.39496,1.46677 1.41565,3.5055 2.26819,4.5305 0.85255,1.02501 1.90443,2.53717 2.3375,3.36037 0.72507,1.3782 0.58775,1.57675 -1.73429,2.50757 -1.38693,0.55598 -4.47169,2.0061 -6.85503,3.22249 -5.31835,2.71436 -5.81417,4.18324 -2.55642,7.57348 2.6453,2.75288 4.76219,3.93491 10.55642,5.89451 3.29443,1.11416 4.38367,1.80027 4.54328,2.86181 0.15298,1.0174 -0.2369,1.50844 -1.43678,1.80959 -0.9057,0.22732 -2.32747,1.13792 -3.15949,2.02357 -0.83202,0.88564 -2.10775,1.61026 -2.83497,1.61026 -1.46486,0 -6.8562,-3.94852 -10.40948,-7.62373 -1.2636,-1.30697 -2.94359,-2.37629 -3.73331,-2.37629 -1.85278,0 -5.8605,2.92219 -10.43846,7.61111 -4.00605,4.10314 -3.73511,3.95104 -5.35594,3.00673 z"
       id="path29" />
    <path
       style="fill:#ffffff"
       d="m 449.70982,510.05417 c 0.60798,-3.24085 -0.0862,-5.43785 -1.86921,-5.91562 -0.82901,-0.22214 -4.57174,-0.40799 -8.31717,-0.41299 -7.44434,-0.01 -8.19012,0.3838 -8.19012,4.32423 0,4.06693 0.59386,4.33333 9.65991,4.33333 h 8.27967 z"
       id="path28" />
    <path
       style="fill:#ffffff"
       d="m 448.66665,525.06389 c 1.00513,-0.63538 1.47242,-6.7639 0.58352,-7.65281 -0.49969,-0.49969 -16.61244,-0.5546 -17.10873,-0.0583 -0.52539,0.52538 -0.51258,5.87089 0.0172,7.19701 0.40573,1.01552 1.44049,1.16534 7.98704,1.15645 4.13651,-0.006 7.97092,-0.29467 8.52092,-0.64235 z"
       id="path27" />
    <path
       style="fill:#ffffff"
       d="m 450.43463,535.23474 1.4678,-1.48172 -1.88536,-2.01828 c -1.6552,-1.77189 -2.33154,-2.01829 -5.54014,-2.01829 -4.10578,0 -5.04454,1.11862 -3.41163,4.06525 0.48809,0.88078 0.89807,2.03208 0.91106,2.55845 0.013,0.52637 0.6789,1.65454 1.47979,2.50705 l 1.45616,1.55002 2.02727,-1.84039 c 1.11499,-1.0122 2.68777,-2.50715 3.49505,-3.32209 z"
       id="path26" />
    <path
       style="fill:#ffffff"
       d="m 437.38639,550.88104 c 4.10915,-1.87266 4.19037,-2.30531 1.60575,-8.55392 -1.27641,-3.08587 -2.51193,-6.74675 -2.7456,-8.1353 -0.44544,-2.64706 -2.71201,-4.94325 -3.80277,-3.85248 -0.73653,0.73652 -0.95474,20.70573 -0.23875,21.84778 0.30292,0.48317 0.96115,0.59999 1.64952,0.29273 0.62999,-0.28119 2.21933,-1.00066 3.53185,-1.59881 z"
       id="path25" />
    <path
       style="fill:#000000"
       d="m 104.62924,561.44194 c -1.13837,-1.25098 -2.76255,-2.44839 -3.6093,-2.66091 -1.973249,-0.49525 -2.763509,-2.44916 -1.395229,-3.44967 0.587069,-0.42928 2.398899,-0.62213 4.209959,-0.44811 4.55579,0.43775 5.85831,-0.86898 7.14372,-7.1668 1.11115,-5.44405 1.33303,-12.47652 0.43818,-13.88814 -0.41502,-0.65468 -1.50757,0.19955 -4.15646,3.24981 -4.40546,5.07301 -11.795139,11.305 -13.405059,11.305 -1.66624,0 -1.50405,-2.1307 0.31161,-4.09363 5.45718,-5.89981 8.864959,-10.36417 12.115689,-15.87214 4.0695,-6.89527 4.74639,-10.10342 2.39701,-11.36077 -1.10398,-0.59083 -2.06096,-0.17231 -5.83333,2.55108 -7.163609,5.17165 -8.846029,5.80672 -8.846029,3.33914 0,-0.93807 1.85013,-3.15514 5.33333,-6.3911 3.321109,-3.08538 5.333329,-5.47043 5.333329,-6.32151 0,-0.8356 -1.82368,-3.06069 -4.692749,-5.72567 -3.96665,-3.68448 -4.55186,-4.49984 -3.78213,-5.26957 1.18255,-1.18255 3.22403,-0.42161 8.522939,3.17681 2.6915,1.82775 4.41087,2.57822 5.27706,2.3033 0.70664,-0.22428 2.25276,-2.11661 3.43582,-4.20519 1.9823,-3.49955 3.01611,-4.76084 3.92382,-4.78721 0.90487,-0.0263 4.64858,4.04443 4.64858,5.05462 0,0.62699 -1.2,2.24782 -2.66667,3.60184 -3.00511,2.7743 -3.37262,4.32197 -1.16667,4.91314 2.49953,0.66985 6.73366,0.45079 8.5,-0.43975 1.54759,-0.78026 1.69049,-1.2673 2,-6.81678 0.3802,-6.81677 0.89315,-7.32552 5.35658,-5.3128 2.74125,1.23614 3.7214,3.15158 2.24127,4.37997 -1.25538,1.04187 -1.23678,6.85933 0.0253,7.90674 0.52605,0.43658 1.94421,0.69832 3.15146,0.58163 2.96675,-0.28674 3.87004,-2.30089 3.88226,-8.65659 0.0112,-5.83928 0.30406,-6.14478 4.52216,-4.71783 3.4181,1.15633 4.74187,3.07237 3.25941,4.71773 -1.46252,1.62322 -1.94337,4.23965 -1.15855,6.3039 0.81287,2.13799 2.39031,2.29639 4.72014,0.47397 2.5641,-2.00566 4.28613,-1.65653 6.90181,1.39931 3.38186,3.95095 2.78826,4.60069 -4.20314,4.60069 -4.93876,0 -6.0053,0.19884 -7.00769,1.30647 -0.80859,0.89348 -1.04689,1.84614 -0.75386,3.01368 0.44753,1.78311 -0.19992,3.51409 -1.98037,5.29454 -0.9582,0.9582 -0.87857,1.05198 0.89321,1.05198 1.06985,0 2.92067,-0.48663 4.11292,-1.08141 2.0412,-1.01828 2.26793,-1.0066 3.88421,0.20013 2.8538,2.13067 3.17623,3.11651 1.89934,5.80736 -1.00195,2.11144 -1.111,4.1536 -0.86171,16.13667 0.27589,13.26132 0.23807,13.77186 -1.13298,15.29402 -2.06443,2.29195 -3.85214,2.34391 -4.92812,0.14323 l -0.89637,-1.83333 h -11.31346 -11.31346 l -0.63821,1.67862 c -0.73374,1.9299 -3.83999,3.39707 -5.28381,2.49569 -0.79602,-0.49696 -0.9445,-3.84782 -0.89179,-20.12681 0.0348,-10.75802 0.33592,-19.80327 0.67032,-20.13768 0.36502,-0.36501 1.57538,-0.20251 3.03538,0.40751 2.28168,0.95335 2.46993,0.9368 3.11803,-0.2742 1.07136,-2.00186 0.85902,-7.73939 -0.32272,-8.72015 -0.67683,-0.56172 -2.20165,-0.71754 -4.59963,-0.47005 -1.97293,0.20362 -4.66732,0.12661 -5.98752,-0.17115 -2.60604,-0.58775 -2.7567,-0.37244 -1.69441,2.42159 1.05585,2.77709 2.45483,10.61666 2.96201,16.59841 0.56533,6.66767 -1.08279,19.87095 -2.93319,23.49802 -1.46371,2.86912 -6.21766,7.46686 -7.72054,7.46686 -0.54005,0 -1.9133,-1.02353 -3.05167,-2.27451 z"
       id="path24" />
    <path
       style="fill:#ffffff"
       d="m 142.92867,523.3286 c 0.64699,-1.68604 0.46763,-6.91548 -0.28546,-8.32264 -0.4947,-0.92435 -1.40087,-1.28951 -3.2,-1.28951 -3.06534,0 -4.10988,0.94509 -4.10988,3.71859 0,1.16522 -0.45403,3.20522 -1.00895,4.53333 l -1.00894,2.41475 h 4.60428 c 3.58352,0 4.694,-0.23379 5.00895,-1.05452 z"
       id="path23" />
    <path
       style="fill:#ffffff"
       d="m 150.53333,538.24979 c 0.44,-0.44 0.8,-2.50791 0.8,-4.59534 0,-4.29795 -0.33777,-4.60466 -5.07103,-4.60466 -2.61544,0 -3.04467,0.21449 -3.66883,1.83333 -0.86556,2.24496 -0.34911,6.82185 0.85597,7.58587 1.329,0.84258 6.17197,0.69272 7.08389,-0.2192 z"
       id="path22" />
    <path
       style="fill:#ffffff"
       d="m 134.71049,538.35966 c 1.0496,-0.56172 1.28951,-1.41667 1.28951,-4.59534 0,-4.3601 -0.35317,-4.71453 -4.69774,-4.71453 -3.00178,0 -3.96893,1.2184 -3.96893,5 0,3.68021 0.9856,5 3.73395,5 1.29454,0 2.93398,-0.31056 3.64321,-0.69013 z"
       id="path21" />
    <path
       style="fill:#ffffff"
       d="m 151.19538,549.62613 c 0.22874,-5.17881 -0.67294,-6.57634 -4.243,-6.57634 -3.21971,0 -4.95475,1.93044 -4.94328,5.5 0.018,5.58939 0.30109,5.91788 4.90972,5.69626 L 151,554.04979 Z"
       id="path20" />
    <path
       style="fill:#ffffff"
       d="m 135.59534,553.3286 c 0.62855,-1.638 0.45694,-7.83046 -0.2479,-8.94548 -0.6702,-1.06021 -6.13458,-1.43508 -7.0837,-0.48597 -0.94039,0.9404 -1.14727,8.42139 -0.26236,9.48764 1.17121,1.41122 7.04754,1.36773 7.59396,-0.0562 z"
       id="path19" />
    <path
       style="fill:#000000"
       d="m 598.15287,562.88312 c -1.36115,-1.4451 -3.78598,-2.83879 -7.65289,-4.39858 -1.15148,-0.46447 -1.83333,-1.24071 -1.83333,-2.08713 0,-1.50342 0.26795,-1.55687 6.82719,-1.36201 4.30236,0.12781 4.52253,0.0581 5.16666,-1.63612 0.40514,-1.06559 0.67281,-10.8617 0.67281,-24.6229 0,-21.66854 -0.0662,-22.91317 -1.27667,-24.00865 -1.16325,-1.05273 -3.14312,-1.13996 -22.28527,-0.98181 -22.14241,0.18293 -23.10472,0.0656 -23.10472,-2.81776 0,-1.19932 0.94159,-1.25265 22.5,-1.27433 20.55124,-0.0207 22.72791,-0.13039 25.13147,-1.26698 l 2.63148,-1.24436 2.14394,1.63527 c 2.66127,2.02985 3.03183,2.94091 1.85228,4.55404 -0.75025,1.02603 -0.92584,5.91382 -0.92584,25.77259 0,27.78675 -0.26778,30.16504 -3.73967,33.2134 -2.75028,2.41478 -4.20953,2.5403 -6.10744,0.52533 z"
       id="path18" />
    <path
       style="fill:#000000"
       d="m 522.9862,560.63084 -1.89848,-3.75227 -5.04387,0.44069 c -19.71417,1.72245 -25.39875,2.40174 -27.98836,3.34451 -3.74156,1.36216 -4.71446,1.01641 -6.52039,-2.31723 -1.68699,-3.1141 -1.44651,-4.29692 1.14619,-5.63766 3.97,-2.05296 13.19709,-14.76619 18.07619,-24.90564 1.52271,-3.1644 3.05274,-6.11738 3.40007,-6.56217 0.99058,-1.26856 7.81195,4.11463 7.36751,5.81417 -0.18464,0.70605 -0.85421,1.44829 -1.48795,1.64943 -0.63373,0.20114 -2.32634,2.03917 -3.76135,4.08451 -1.43501,2.04534 -5.23411,7.04213 -8.44244,11.10398 -5.80539,7.34979 -6.6137,8.89902 -4.97178,9.52908 0.47386,0.18184 6.24538,0.0974 12.82561,-0.18758 14.12668,-0.61188 14.21529,-0.67723 9.37326,-6.91238 -3.06102,-3.94171 -4.02054,-7.27249 -2.09504,-7.27249 1.14682,0 7.53902,5.22008 11.55647,9.4374 5.56552,5.84241 6.86137,10.60983 3.82239,14.0626 -0.8875,1.00833 -2.02896,1.83333 -2.53659,1.83333 -0.50763,0 -1.77728,-1.68852 -2.82144,-3.75228 z"
       id="path17" />
    <path
       style="fill:#000000"
       d="m 60.316551,562.88312 c -0.67288,-2.29406 -3.05976,-7.29235 -4.4266,-9.26958 -4.19339,-6.06606 2.79599,-5.61657 7.85118,0.50491 2.65523,3.21529 3.11671,7.28168 1.03971,9.16134 -1.76281,1.59532 -3.93667,1.40217 -4.46429,-0.39667 z"
       id="path16" />
    <path
       style="fill:#000000"
       d="m 400.51053,564.67144 c -0.71759,-0.71759 -0.585,-65.11587 0.13644,-66.26875 0.50282,-0.80352 1.01103,-0.84317 2.8166,-0.21974 4.81339,1.66197 8.85449,1.72563 12.21995,0.19249 l 3.17163,-1.44485 2.07003,2.07003 c 2.03467,2.03468 2.05064,2.10115 0.93483,3.89293 -2.74004,4.39998 -7.19625,14.71258 -7.1887,16.63615 0.003,0.65271 1.45016,3.30798 3.21688,5.9006 7.04615,10.34002 5.92926,20.30042 -2.67285,23.83645 l -2.45131,1.00765 -1.54869,-2.27442 c -0.98782,-1.45072 -2.09192,-2.27607 -3.04869,-2.27897 -1.47456,-0.004 -1.5,0.13462 -1.5,8.20136 0,5.52378 -0.27237,8.57148 -0.83333,9.32435 -0.90933,1.22044 -4.55205,2.19546 -5.32279,1.42472 z"
       id="path15" />
    <path
       style="fill:#ffffff"
       d="m 415.03647,539.91806 c 1.62978,-1.62978 0.91741,-8.32814 -1.30267,-12.24884 -4.26049,-7.52408 -4.07958,-6.77336 -2.83544,-11.76616 0.61947,-2.48597 1.47659,-5.77192 1.90471,-7.30213 0.93057,-3.32606 0.0527,-4.88448 -2.75138,-4.88448 -3.31252,0 -3.38504,0.39482 -3.38504,18.42887 0,16.63472 0.0171,16.84083 1.48167,17.86666 1.95514,1.36944 5.47276,1.32147 6.88815,-0.0939 z"
       id="path14" />
    <path
       style="fill:#000000"
       d="m 338.06418,564.4369 c -0.77983,-0.49372 -0.85708,-2.93105 -0.46346,-14.6227 0.25979,-7.71663 0.27252,-15.09542 0.0283,-16.39732 -0.51739,-2.75796 -2.06244,-3.13313 -4.01548,-0.97504 -2.84771,3.14668 -10.99142,8.69457 -12.45701,8.48632 -2.29109,-0.32556 -1.49552,-2.42481 2.07055,-5.46351 5.64161,-4.80728 11.24598,-10.92765 15.01024,-16.39222 6.04904,-8.78138 6.11757,-8.68931 -6.46732,-8.68931 -9.35106,0 -10.33271,-0.11348 -11.42534,-1.32083 -0.97821,-1.08091 -1.0427,-1.50474 -0.35503,-2.33333 0.69571,-0.83828 2.94622,-1.01251 13.07846,-1.01251 h 12.23815 l 1.35515,-2.65631 c 0.74533,-1.46097 1.58407,-3.75809 1.86385,-5.10471 0.77454,-3.72786 2.23075,-4.25371 6.00045,-2.16677 3.78198,2.09372 4.1865,3.44481 1.78263,5.95391 -3.37532,3.52308 -2.3187,3.97388 9.31423,3.97388 h 10.33106 l 2.27788,-2 c 1.25283,-1.1 2.84954,-2 3.54826,-2 0.69871,0 2.73318,1.48513 4.52104,3.30029 5.21798,5.29764 5.00874,5.36638 -16.33479,5.36638 -19.51301,0 -18.82979,-0.13096 -20.97681,4.02093 -1.89093,3.65665 -1.16091,3.97907 9.00934,3.97907 7.6375,0 9.67396,-0.21703 12.05994,-1.28526 2.85535,-1.27838 2.88102,-1.27794 4.79222,0.083 2.55109,1.81654 2.90333,2.97681 1.58249,5.21281 -0.94542,1.60047 -1.10019,4.28103 -1.10233,19.09235 -0.002,15.91348 -0.10196,17.39361 -1.30385,19.36477 -0.71575,1.17387 -2.23749,2.61839 -3.38164,3.21006 -1.90255,0.98385 -2.21834,0.9853 -3.69615,0.017 -0.88873,-0.58232 -1.61587,-1.31927 -1.61587,-1.63767 0,-0.3184 -1.14198,-1.03585 -2.53774,-1.59432 -5.60594,-2.24305 -4.71825,-4.82567 1.55871,-4.53491 3.29894,0.15281 3.62966,0.0349 3.99601,-1.42477 0.21968,-0.87526 0.30573,-3.0715 0.19122,-4.88053 l -0.2082,-3.28916 -11.24517,-0.18314 c -7.72752,-0.12585 -11.53343,0.0561 -12.16667,0.58163 -0.68008,0.56442 -0.92149,2.6503 -0.92149,7.9621 v 7.19733 l -2.24536,1.38771 c -2.56619,1.58599 -2.44829,1.56124 -3.69045,0.77482 z"
       id="path13" />
    <path
       style="fill:#ffffff"
       d="m 368.262,529.3286 c 0.82607,-2.15273 0.43131,-6.12593 -0.64987,-6.54082 -1.80403,-0.69227 -20.95329,-0.44739 -22.32264,0.28546 -1.60652,0.85979 -1.75669,4.74745 -0.24188,6.26226 1.56672,1.56672 22.61293,1.56046 23.21439,-0.007 z"
       id="path12" />
    <path
       style="fill:#ffffff"
       d="m 368.06334,540.97011 c 0.85058,-1.34296 0.73107,-4.85923 -0.19669,-5.78699 -1.01011,-1.01011 -19.63479,-1.10862 -22.24128,-0.11764 -1.62454,0.61765 -1.75654,0.91776 -1.39195,3.16448 0.22153,1.36517 0.81436,2.7831 1.31738,3.15097 0.53187,0.38897 5.31152,0.63552 11.42211,0.58918 8.14314,-0.0617 10.63869,-0.28676 11.09043,-1 z"
       id="path11" />
    <path
       style="fill:#000000"
       d="m 180.44444,564.60534 c -0.24445,-0.24444 -0.44445,-6.99444 -0.44445,-15 0,-16.7915 0.0889,-16.61087 -5.84712,-11.88456 -3.3227,2.64557 -5.48621,2.99082 -5.48621,0.87547 0,-0.53765 2.29674,-3.48707 5.10386,-6.55425 5.54625,-6.06009 12.55933,-15.46226 13.92775,-18.67241 0.47207,-1.10745 1.41973,-2.52161 2.1059,-3.14258 1.18073,-1.06855 1.40685,-1.0236 4.2204,0.83905 l 2.97282,1.96809 0.53085,-1.82552 c 0.29197,-1.00403 0.35465,-3.79706 0.1393,-6.20672 -0.21534,-2.40967 -0.0901,-5.17414 0.27839,-6.14326 0.65663,-1.72708 0.71633,-1.74267 3.00725,-0.78546 1.69701,0.70906 5.03703,0.97539 12.19207,0.9722 8.61449,-0.004 10.10054,-0.16642 11.80779,-1.29186 l 1.95306,-1.28746 2.04694,1.71099 c 2.59053,2.16535 3.10426,3.52767 1.9563,5.18773 -0.66262,0.95821 -0.90935,3.8599 -0.90935,10.69453 v 9.37952 l 3,2.94428 c 3.33703,3.27505 3.9028,5.6084 1.5115,6.23374 -0.81868,0.21409 -1.77868,0.0991 -2.13333,-0.25558 -1.02211,-1.02211 -3.43093,-0.75241 -5.05972,0.56651 -1.27365,1.03134 -1.38021,1.42759 -0.71707,2.66667 0.97314,1.81832 2.06612,1.83763 4.30558,0.0761 2.21363,-1.74124 3.78681,-1.27888 6.38865,1.87761 2.79789,3.39431 1.92755,4.16831 -4.68711,4.16831 -4.48672,0 -5.32613,0.1829 -5.91837,1.28951 -0.37957,0.70923 -0.69013,4.75836 -0.69013,8.99808 v 7.70857 l -2.41091,2.66859 c -2.82135,3.1229 -4.07058,3.29576 -6.76042,0.93547 -1.0863,-0.95322 -3.14215,-2.38776 -4.56855,-3.18788 -1.64227,-0.92121 -2.59345,-1.93599 -2.59345,-2.76688 0,-1.20113 0.38757,-1.29175 4.5815,-1.07132 3.34863,0.176 4.73623,-0.003 5.15646,-0.66667 0.65408,-1.03235 0.80569,-11.25033 0.19071,-12.85294 -0.33472,-0.87229 -1.65966,-1.05453 -7.66666,-1.05453 -4.08338,0 -7.26201,0.27406 -7.26201,0.62612 0,0.34437 1.23208,2.04968 2.73796,3.78959 2.45213,2.83321 2.70121,3.43745 2.38594,5.78793 -0.43671,3.25592 -1.22157,4.08372 -3.36247,3.54639 -1.26351,-0.31713 -2.24672,-1.61908 -4.04301,-5.35372 -2.72729,-5.67026 -5.67067,-8.60102 -8.04068,-8.00618 -1.95879,0.49162 -4.25874,-0.70907 -4.95295,-2.58571 -0.50939,-1.37701 -0.58255,-1.3466 -1.62907,0.67714 -0.87343,1.68903 -1.09572,4.14454 -1.09572,12.10362 v 9.98472 l -1.75657,1.38172 c -1.75627,1.38148 -3.62849,1.77443 -4.46565,0.93727 z"
       id="path10" />
    <path
       style="fill:#ffffff"
       d="m 222.2788,508.64513 c 0.66468,-0.25506 1.05453,-1.21216 1.05453,-2.58891 0,-2.78432 -0.72254,-2.98556 -10.76201,-2.99733 -6.46853,-0.008 -7.82944,0.16663 -8.16667,1.04542 -0.53776,1.40139 -0.51527,3.94598 0.0398,4.50103 0.55554,0.55555 16.39821,0.59089 17.83436,0.0398 z"
       id="path9" />
    <path
       style="fill:#ffffff"
       d="m 222.2788,519.31179 c 0.70399,-0.27014 1.05453,-1.24153 1.05453,-2.92224 0,-3.16748 -0.49107,-3.31864 -10.82064,-3.33066 -7.78921,-0.009 -7.82231,-0.002 -8.23893,1.65756 -0.23007,0.91667 -0.23007,2.41667 0,3.33334 0.41805,1.66567 0.42322,1.66666 8.68441,1.66666 4.54636,0 8.74064,-0.18209 9.32063,-0.40466 z"
       id="path8" />
    <path
       style="fill:#ffffff"
       d="m 222.2788,527.31179 c 1.66988,-0.64079 1.228,-2.18989 -0.77881,-2.73026 -1.00833,-0.27152 -4.98333,-0.47861 -8.83333,-0.46019 -7.59512,0.0363 -10.71991,0.92439 -9.29475,2.64161 0.61082,0.73599 2.73734,0.9535 9.32185,0.9535 4.69179,0 9.00505,-0.18209 9.58504,-0.40466 z"
       id="path7" />
    <path
       style="fill:#ffffff"
       d="m 219.34766,536.38312 c 0.92351,-1.46144 0.79566,-2.4281 -0.49136,-3.71512 -1.02807,-1.02807 -2.27782,-1.09765 -12.36182,-0.68831 -10.18872,0.41361 -11.35491,0.34595 -12.70886,-0.73725 -1.82507,-1.46013 -1.57438,-3.5221 0.42992,-3.5362 2.38467,-0.0168 2.96692,-0.82037 3.13239,-4.32312 0.249,-5.2712 0.0457,-7 -0.82323,-7 -1.21487,0 -7.93297,7.35653 -8.96039,9.81192 -1.04057,2.48682 -1.17634,7.36826 -0.27115,9.74909 l 0.62649,1.64781 15.39805,-0.10441 c 12.88269,-0.0874 15.50128,-0.26777 16.02996,-1.10441 z"
       id="path6" />
    <path
       style="fill:#000000"
       d="m 21.833791,564.59032 c -0.64142,-0.16763 -1.34738,-1.02662 -1.56881,-1.90886 -0.31443,-1.25279 0.21259,-2.30057 2.40656,-4.78454 3.61817,-4.09642 4.37249,-5.99183 2.99177,-7.5175 -0.87408,-0.96586 -1.0667,-3.76036 -1.1998,-17.40677 l -0.15855,-16.2562 -1.84672,-3.31782 -1.84673,-3.31782 3.86091,-3.73193 c 2.1235,-2.05256 4.91091,-5.57562 6.19424,-7.82902 2.68147,-4.70837 3.83096,-5.07084 7.20446,-2.27181 2.51311,2.08517 2.39584,3.29609 -0.48397,4.99723 -2.10108,1.24114 -6.05382,5.48153 -6.05382,6.49437 0,0.36323 2.477,0.64347 5.68759,0.64347 4.46192,0 5.77099,-0.21733 6.07458,-1.00849 0.21285,-0.55467 0.0286,-1.44027 -0.40933,-1.96801 -0.95043,-1.14519 -0.29562,-3.69017 0.94945,-3.69017 1.16671,0 9.03104,5.2729 9.03104,6.05516 0,0.33633 0.64525,0.61151 1.43389,0.61151 1.39535,0 1.42277,-0.16914 1.02038,-6.29488 -0.38376,-5.84216 -0.32037,-6.32443 0.88138,-6.70586 0.71218,-0.22603 2.6505,0.18868 4.30736,0.92159 3.1456,1.39145 3.22784,1.66893 1.54129,5.20084 -0.80483,1.68546 -0.31748,3.4078 1.1204,3.95957 0.55277,0.21212 3.41117,-1.00547 6.37866,-2.71712 3.55269,-2.04919 5.81331,-2.96302 6.66286,-2.69338 1.64499,0.5221 4.21607,4.10435 3.77352,5.2576 -0.18595,0.48458 0.23407,1.74893 0.93336,2.80967 0.6993,1.06075 1.27343,2.53688 1.27584,3.2803 0.002,0.74341 0.47465,2.02305 1.04941,2.84363 1.41788,2.02431 0.98759,4.06541 -1.20009,5.69267 -1.52804,1.1366 -3.19398,1.41608 -10.33333,1.73355 l -8.51159,0.37849 -0.22125,1.94009 c -0.12169,1.06705 -0.68925,2.65434 -1.26124,3.52731 -0.82382,1.25731 -0.88473,1.92796 -0.29304,3.22657 0.41082,0.90165 1.16243,1.63936 1.67025,1.63936 0.50782,0 3.13926,-1.49294 5.84763,-3.31765 2.70837,-1.82471 5.2584,-3.32471 5.66674,-3.33334 0.40833,-0.009 1.5479,0.78981 2.53238,1.77428 2.47498,2.47498 2.17701,5.12893 -0.60814,5.41665 -2.55773,0.26423 -11.53838,3.27944 -13.5,4.53256 -1.64235,1.04917 -1.95207,2.87543 -0.7,4.1275 0.51309,0.51309 3.13694,0.8 7.31621,0.8 h 6.51622 l 1.01712,-1.96689 c 0.55941,-1.08179 1.01712,-2.71409 1.01712,-3.62733 0,-0.91323 0.27292,-1.8291 0.6065,-2.03526 1.11269,-0.68769 2.72683,0.4209 2.72683,1.87278 0,0.78869 0.74525,2.83392 1.6561,4.54496 l 1.65611,3.11099 -1.98584,1.67097 c -1.09221,0.91904 -2.66246,1.87843 -3.48944,2.13197 -3.26701,1.00164 -3.29496,1.68233 -0.16717,4.07058 3.04802,2.32734 4.9989,5.20254 4.99441,7.36079 -0.001,0.65988 -0.58283,2.15154 -1.29213,3.3148 -1.84956,3.03332 -3.50884,2.3266 -5.62887,-2.39745 -0.94456,-2.10477 -2.47319,-4.94059 -3.39695,-6.30182 -0.92375,-1.36123 -1.67955,-2.74022 -1.67955,-3.06441 0,-1.70025 -2.27592,-2.68484 -6.21429,-2.6884 -10.14867,-0.009 -11.11905,-1.48199 -11.11905,-16.87644 0,-6.6583 0.25984,-10.44635 0.75021,-10.93671 0.46062,-0.46062 0.57763,-1.6701 0.30312,-3.13333 -0.81433,-4.34076 -4.21324,-2.51326 -4.86556,2.61607 -0.13995,1.10044 -0.47888,6.8008 -0.75318,12.66746 -0.52919,11.31821 -0.93938,13.05077 -3.69719,15.61621 -2.1825,2.03027 -2.18615,3.17577 -0.0173,5.43955 2.22835,2.3259 3.02735,5.81529 1.92948,8.42637 -1.66079,3.94986 -5.16271,2.87801 -6.07433,-1.8592 -0.24233,-1.25928 -1.14589,-3.77074 -2.00792,-5.58103 -1.85174,-3.88874 -1.88546,-4.25203 -0.53329,-5.74616 0.94796,-1.04749 0.83528,-1.3064 -1.35394,-3.11094 -3.04156,-2.50711 -2.63726,-4.03369 1.14305,-4.31595 2.88637,-0.21552 4.34597,-1.59794 3.63722,-3.4449 -0.33954,-0.88482 -1.43193,-1.09061 -5.78926,-1.09061 -5.15174,0 -5.39728,0.0697 -6.02093,1.71006 -0.35759,0.94054 -0.65016,4.34653 -0.65016,7.56888 0,10.63051 -0.59619,13.88473 -3.01328,16.44759 -2.03689,2.15973 -3.15877,2.50942 -5.8196,1.814 z"
       id="path5" />
    <path
       style="fill:#ffffff"
       d="m 76.952691,513.80793 c 0.50189,-0.97055 1.01786,-2.78031 1.14659,-4.02168 0.3819,-3.68281 -0.87032,-3.86344 -8.75606,-1.26302 -6.0764,2.00376 -6.99787,2.50699 -7.4096,4.04647 -0.64092,2.39652 0.34689,3.03233 5.08944,3.27587 6.88687,0.35365 8.90747,-0.061 9.92963,-2.03764 z"
       id="path4" />
    <path
       style="fill:#ffffff"
       d="m 44.793411,516.65222 c 3.44016,-1.74326 3.77722,-2.29893 2.19231,-3.61428 -0.69659,-0.57812 -2.21047,-0.71545 -4.83333,-0.43845 -5.68914,0.60082 -13.48573,2.49853 -13.48573,3.28247 0,1.64653 2.49189,2.43585 7.62675,2.41581 4.26134,-0.0166 5.91862,-0.33746 8.5,-1.64555 z"
       id="path3" />
    <path
       style="fill:#ffffff"
       d="m 41.629151,524.6386 c 0.82938,-0.31826 0.89859,-0.61959 0.30623,-1.33334 -0.50379,-0.60703 -2.20471,-0.92214 -4.97767,-0.92214 -4.07325,0 -5.4835,0.60992 -4.62438,2 0.44853,0.72573 7.56098,0.9212 9.29582,0.25548 z"
       id="path2" />
    <path
       style="fill:#ffffff"
       d="m 42.451401,531.31584 c 0.63934,-1.66611 -1.07911,-2.29133 -5.78474,-2.10464 -3.92488,0.15572 -4.35341,0.31331 -4.54636,1.67192 -0.2049,1.44268 -0.0194,1.5 4.85425,1.5 4.03125,0 5.15103,-0.21821 5.47685,-1.06728 z"
       id="path1" />
  </g>
</svg>
