<?xml version="1.0" encoding="UTF-8" standalone="no"?>
<!-- Created with Inkscape (http://www.inkscape.org/) -->

<svg
   version="1.1"
   id="svg1"
   width="945.33331"
   height="897.33331"
   viewBox="0 0 945.33331 897.33331"
   xmlns="http://www.w3.org/2000/svg"
   xmlns:svg="http://www.w3.org/2000/svg">
  <defs
     id="defs1" />
  <g
     id="g1">
    <path
       style="fill:#000000"
       d="m 866.90305,76.40609 c -2.1171,-1.29072 -2.2106,-1.50817 -1.7902,-4.16418 0.9132,-5.7687 1.1495,-27.39485 0.344,-31.46901 -1.1017,-5.57144 -1.3353,-6.33333 -1.9419,-6.33333 -1.1623,0 -7.3782,5.64005 -7.3782,6.69464 0,0.61905 -0.675,1.98205 -1.5,3.0289 -1.306,1.65713 -1.5431,2.91622 -1.8333,9.73328 -0.2608,6.12456 -0.577,8.07348 -1.4521,8.94815 -1.0471,1.04657 -1.2071,0.97332 -2.4975,-1.14338 -1.8205,-2.98623 -1.904,-9.40011 -0.1595,-12.26159 0.6706,-1.1 1.4225,-3.27149 1.6708,-4.82553 1.9506,-12.2063 16.3741,-22.47638 32.7716,-23.33455 5.3014,-0.27745 6.5332,-0.11176 10.5796,1.42312 9.4684,3.59153 16.1733,9.06258 20.4324,16.67222 2.4794,4.42995 3.0167,9.6676 1.3922,13.57066 l -0.9042,2.17259 -1.2526,-1.44423 c -0.6889,-0.79432 -1.5585,-2.67198 -1.9324,-4.17258 -0.7243,-2.90681 -4.8536,-11.29276 -6.5083,-13.21748 -0.9466,-1.10105 -3.9808,-2.94359 -11.9258,-7.242 -3.3209,-1.79668 -4.0953,-1.93556 -10.7926,-1.93556 -6.1894,0 -7.3746,0.17641 -8.3381,1.241 -0.6177,0.68255 -2.3142,1.77811 -3.77,2.43458 -3.2569,1.4687 -3.3845,2.32442 -0.3463,2.32442 1.2652,0 3.8337,0.32881 5.7076,0.73069 2.3994,0.5146 4.5617,0.52731 7.3112,0.043 4.8842,-0.86033 6.4839,-0.43234 10.614,2.83979 2.6103,2.06801 3.4566,3.24021 4.055,5.61646 1.3691,5.43726 -0.1026,9.76066 -4.0104,11.78146 -0.9305,0.48118 -2.0894,1.61792 -2.5755,2.5261 -0.8155,1.52371 -0.6592,1.97065 2.0236,5.78767 6.2005,8.82201 7.4004,11.13052 6.5812,12.66129 -1.0963,2.04837 -3.7378,2.87255 -6.3955,1.99543 -2.5356,-0.83682 -6.8433,-4.80617 -9.1801,-8.459 -0.8876,-1.38758 -2.5621,-3.4176 -3.721,-4.51116 -2.9254,-2.76044 -3.5487,-1.59929 -3.1276,5.82672 l 0.331,5.83843 -1.9239,0.99491 c -2.6682,1.37978 -5.9155,1.23865 -8.5572,-0.37191 z"
       id="path92" />
    <path
       style="fill:#ffffff"
       d="m 882.70675,51.48956 c 2.1944,-1.13476 3.6447,-3.98994 3.0225,-5.95027 -0.8404,-2.6481 -4.4023,-6.43306 -6.0539,-6.43306 -1.9948,0 -2.8719,2.16463 -2.8719,7.08723 0,5.98304 1.6728,7.48378 5.9033,5.2961 z"
       id="path91" />
    <path
       style="fill:#000000"
       d="m 875.53905,89.52266 c -0.4185,-0.5043 -2.1803,-1.30151 -3.915,-1.77159 -1.7347,-0.47008 -4.3803,-1.55747 -5.8792,-2.41643 -1.4989,-0.85896 -3.2359,-1.56174 -3.8601,-1.56174 -2.9695,0 -10.4147,-11.35913 -10.4147,-15.8897 v -2.20109 l 1.9491,1.38783 c 1.0719,0.76331 2.1327,2.20873 2.3572,3.21206 0.4705,2.10235 6.539,8.82423 7.9665,8.82423 0.5271,0 1.862,0.76045 2.9666,1.68988 2.6601,2.23832 7.3358,3.48242 13.2819,3.53399 5.2518,0.0456 15.5723,-1.91834 17.206,-3.27412 0.5551,-0.46071 2.1169,-1.0177 3.4706,-1.23775 2.2176,-0.36045 2.7995,-0.94012 5.8747,-5.85198 2.1518,-3.43713 3.8286,-7.10565 4.5373,-9.92691 0.6183,-2.46126 1.6788,-5.18027 2.3569,-6.04224 l 1.2328,-1.56723 0.7335,2.10433 c 0.4035,1.15738 0.7336,4.12712 0.7336,6.59942 0,4.04845 -0.2153,4.77531 -2.1667,7.31525 -3.4263,4.45972 -9.4782,10.4548 -11.0609,10.95715 -0.7955,0.25246 -2.2696,1.14945 -3.276,1.99331 -1.0063,0.84386 -2.8797,1.75974 -4.1631,2.03529 -1.2833,0.27555 -3.4463,1.06439 -4.8067,1.75297 -3.1175,1.57796 -13.8946,1.81672 -15.1243,0.33507 z"
       id="path90" />
    <path
       style="fill:#000000"
       d="m 750.59085,305.12817 c -0.98309,-1.16834 -1.79193,-2.92623 -1.79743,-3.90643 -0.006,-0.9802 -0.75547,-4.18218 -1.66658,-7.11551 -0.91111,-2.93334 -1.65661,-6.15129 -1.65666,-7.15102 -5e-5,-0.99973 -1.0181,-4.59973 -2.26234,-8 -1.24424,-3.40027 -3.19596,-9.11163 -4.33717,-12.6919 -1.14121,-3.58026 -2.6732,-7.62582 -3.40442,-8.99012 -0.73122,-1.3643 -1.3295,-2.97953 -1.3295,-3.58939 0,-0.60987 -0.9,-2.81977 -2,-4.91091 -1.1,-2.09113 -2,-4.17973 -2,-4.64133 0,-0.4616 -0.75256,-1.94823 -1.67235,-3.30363 -0.9198,-1.35539 -1.98785,-3.87213 -2.37345,-5.59276 -0.3856,-1.72062 -1.2346,-3.72853 -1.88667,-4.46201 -0.65206,-0.73348 -1.77762,-2.5336 -2.50123,-4.00027 -1.37749,-2.79198 -4.72958,-9.00956 -7.90728,-14.66666 -1.02981,-1.83333 -2.19938,-3.93333 -2.59904,-4.66667 -0.39965,-0.73333 -1.37251,-2.08333 -2.1619,-3 -0.78939,-0.91666 -1.98939,-2.74026 -2.66666,-4.05244 -1.25626,-2.43391 -5.16051,-8.55978 -8.88933,-13.94756 -1.14194,-1.65 -2.65666,-3.975 -3.36604,-5.16666 -0.70938,-1.19167 -1.58649,-2.16667 -1.94913,-2.16667 -0.36264,0 -1.15933,-0.975 -1.77044,-2.16667 -0.6111,-1.19166 -2.96246,-4.41666 -5.22524,-7.16666 -2.26278,-2.75 -4.81397,-6.00738 -5.66931,-7.23861 -1.53817,-2.21413 -3.53412,-4.47949 -12.0916,-13.72367 -2.41799,-2.61202 -4.52293,-5.03906 -4.67765,-5.39342 -0.3534,-0.80945 -14.95106,-14.86368 -22.92601,-22.07253 -6.45359,-5.83364 -12.41348,-10.6436 -18.45865,-14.89715 -2.0856,-1.46748 -3.99369,-2.9945 -4.2402,-3.39337 -0.24652,-0.39888 -2.14013,-1.80603 -4.20801,-3.12701 -2.06789,-1.32098 -4.15623,-2.79609 -4.64076,-3.27801 -0.48452,-0.48193 -1.13258,-0.87623 -1.44013,-0.87623 -0.30755,0 -2.08612,-1.20698 -3.95238,-2.68217 -3.06134,-2.41985 -3.3932,-2.94146 -3.3932,-5.33333 0,-4.05115 0.42953,-4.35879 15.68096,-11.23123 7.02417,-3.16515 17.88714,-7.2425 24.98571,-9.37824 2.75,-0.82739 5.32049,-1.76675 5.7122,-2.08746 0.39171,-0.32071 3.69171,-1.16921 7.33333,-1.88556 3.64162,-0.71636 7.94155,-1.77758 9.5554,-2.35828 1.61385,-0.58069 4.61385,-1.22851 6.66667,-1.43958 2.05282,-0.21108 6.53137,-0.96469 9.95233,-1.67469 19.35144,-4.01628 50.12532,-4.12741 69.44673,-0.25077 4.21667,0.84603 8.86667,1.74089 10.33333,1.98857 11.77948,1.98925 36.44348,12.66529 49,21.2101 7.1071,4.83643 20.6857,17.31496 22.3846,20.57105 0.5113,0.97996 2.1522,3.19433 3.6465,4.92082 1.4942,1.7265 3.4035,4.52471 4.2427,6.21826 0.8392,1.69354 2.9209,5.77653 4.626,9.0733 1.7051,3.29677 3.1002,6.53822 3.1002,7.20324 0,0.66502 0.6197,2.56949 1.3772,4.23216 1.4221,3.12185 2.371,8.02924 4.2653,22.05896 0.9057,6.70803 0.9769,9.48978 0.4012,15.67622 -0.8444,9.07378 -2.8502,20.30304 -4.6914,26.26411 -0.7438,2.40806 -1.3523,4.88326 -1.3523,5.50044 0,0.61719 -0.5934,2.28605 -1.3186,3.7086 -0.7253,1.42254 -1.6608,3.62292 -2.0788,4.88972 -0.4181,1.2668 -1.6247,3.9468 -2.6814,5.95555 -1.0567,2.00874 -1.9212,4.10049 -1.9212,4.64832 0,0.54783 -0.5476,1.79237 -1.2169,2.76564 -0.6693,0.97327 -1.6016,2.73463 -2.0718,3.91414 -0.4701,1.17951 -1.2944,2.50944 -1.8317,2.9554 -0.5374,0.44596 -1.5432,1.92056 -2.2351,3.27689 -1.0852,2.12705 -3.1331,5.1423 -11.8512,17.44916 -7.82177,11.04153 -29.96744,33.06309 -40.08363,39.85899 -1.37954,0.92676 -2.96013,2.12676 -3.51242,2.66667 -1.49494,1.46143 -9.67784,7.29081 -13.86391,9.87645 -2.01667,1.24565 -4.88733,2.4118 -6.37924,2.59144 -2.42035,0.29143 -2.90512,0.0978 -4.5,-1.79762 z"
       id="path89" />
    <path
       style="fill:#000000"
       d="m 123.64088,307.12303 c -1.18941,-0.28237 -2.53941,-0.81969 -3,-1.19405 -0.4606,-0.37437 -2.03745,-1.3492 -3.50411,-2.16628 -1.46667,-0.81709 -3.56667,-2.21267 -4.66667,-3.10128 -1.1,-0.88862 -5.15,-3.89371 -9,-6.678 -3.849997,-2.78428 -7.299997,-5.39567 -7.666667,-5.80309 -0.36666,-0.40743 -1.71666,-1.52808 -3,-2.49035 -11.2051,-8.40183 -36.7248,-37.95932 -42.52242,-49.25042 -0.65895,-1.28333 -2.1559,-3.80906 -3.32655,-5.61273 -4.20111,-6.47281 -11.5142,-22.54757 -13.21786,-29.05393 -0.52806,-2.01667 -1.39614,-5.16667 -1.92907,-7 -0.53293,-1.83334 -1.65001,-7.23334 -2.4824,-12 -2.81268,-16.10672 -1.37325,-39.18177 3.119,-50 0.91355,-2.2 1.66811,-4.60825 1.67682,-5.35167 0.009,-0.74341 0.49172,-2.0311 1.07338,-2.86153 0.58165,-0.83043 2.49821,-4.42218 4.25902,-7.98167 3.99182,-8.06951 8.38912,-13.84654 17.35856,-22.80513 8.46258,-8.45234 13.05446,-12.14722 21.6946,-17.45661 7.39003,-4.5412 22.425637,-11.39697 28.963587,-13.20649 2.38333,-0.65964 5.53333,-1.66735 7,-2.23936 1.46667,-0.572 5.65901,-1.53598 9.31632,-2.14217 3.65731,-0.60619 7.2928,-1.34669 8.07887,-1.64555 0.78608,-0.29887 6.77869,-1.04441 13.31693,-1.65676 16.87603,-1.58055 42.76405,-0.6374 53.7033,1.95651 2.42848,0.57585 6.77848,1.36327 9.66666,1.74983 2.88819,0.38656 7.05125,1.27354 9.25125,1.97107 2.2,0.69752 5.67968,1.56495 7.73262,1.92762 2.05294,0.36268 5.50294,1.30492 7.66667,2.09389 2.16372,0.78897 5.05405,1.70792 6.42295,2.04212 1.3689,0.3342 4.3689,1.33735 6.66667,2.22923 9.99333,3.8789 13.24763,5.04334 14.09487,5.04334 0.49669,0 1.61853,0.55873 2.49298,1.24162 0.87445,0.6829 2.33991,1.47119 3.25657,1.75175 0.91667,0.28057 4.15347,1.66345 7.1929,3.07307 4.80379,2.2279 5.66285,2.88992 6.57127,5.06409 1.60898,3.85081 0.28612,5.57196 -9.2815,12.07609 -4.48214,3.04699 -10.54933,7.46889 -13.48267,9.82646 -2.93333,2.35758 -6.2187,4.87804 -7.30082,5.60103 -1.08213,0.723 -4.68213,3.83361 -8,6.91246 -3.31788,3.07886 -7.07255,6.46542 -8.34372,7.52568 -7.7341,6.45091 -25.48774,25.47075 -36.02508,38.59441 -2.35525,2.93333 -4.48004,5.48333 -4.72175,5.66667 -0.24172,0.18333 -1.20309,1.46417 -2.13639,2.8463 -0.9333,1.38214 -2.49233,3.48214 -3.4645,4.66667 -2.1165,2.57881 -11.99017,17.33182 -14.34107,21.42809 -0.91666,1.59722 -2.71666,4.61632 -4,6.70909 -2.91545,4.75433 -8.82801,15.59123 -10.93547,20.04319 -0.87481,1.84801 -2.06427,3.75315 -2.64324,4.23366 -0.57897,0.4805 -1.23865,1.96849 -1.46596,3.30665 -0.22731,1.33816 -0.94815,3.19568 -1.60186,4.12784 -1.2743,1.81705 -4.08593,8.20895 -6.00244,13.64578 -0.64767,1.83734 -1.81661,4.5329 -2.59764,5.99013 -0.78103,1.45723 -1.42005,3.05614 -1.42005,3.55313 0,0.49699 -1.7808,6.35143 -3.95733,13.00987 -2.17653,6.65844 -4.23928,13.60626 -4.58389,15.43959 -0.9667,5.14277 -2.84674,12.50986 -3.59647,14.09303 -0.53566,1.13113 -3.43166,3.15583 -4.06035,2.83873 -0.0744,-0.0375 -1.10845,-0.29926 -2.29785,-0.58162 z"
       id="path88" />
    <path
       style="fill:#000000"
       d="m 574.13676,533.10322 c -1.65,-0.30937 -6,-0.92181 -9.66667,-1.36098 -3.66667,-0.43917 -8.31667,-1.36972 -10.33333,-2.0679 -2.01667,-0.69818 -5.64025,-1.68477 -8.0524,-2.19241 -2.41215,-0.50765 -5.41215,-1.54873 -6.66667,-2.31353 -1.25451,-0.76479 -2.91449,-1.39165 -3.68884,-1.39302 -0.77434,-0.001 -3.77434,-1.24146 -6.66666,-2.75576 -2.89232,-1.51429 -6.15877,-3.20743 -7.25877,-3.76253 -17.24212,-8.7009 -37.75157,-28.27941 -47.99614,-45.81753 -4.70606,-8.05652 -9.85977,-19.06006 -11.08473,-23.66667 -5.72721,-21.53797 -7.38814,-33.7705 -6.02673,-44.3862 0.42585,-3.32059 0.77427,-7.28781 0.77427,-8.81605 0,-3.00273 0.18918,-3.9734 3.37743,-17.32968 2.34279,-9.81445 8.84888,-25.04041 14.52835,-34.00018 5.90852,-9.32109 17.6927,-22.31932 27.09422,-29.88553 5.59045,-4.49913 14.74455,-10.76435 18.47124,-12.64205 1.94082,-0.97788 4.27876,-2.30522 5.19543,-2.94964 0.91666,-0.64442 3.68345,-1.79364 6.14841,-2.55384 2.46497,-0.7602 5.21829,-1.86477 6.11851,-2.45462 0.90022,-0.58984 3.83343,-1.61921 6.51825,-2.28749 2.68482,-0.66827 5.78149,-1.56938 6.88149,-2.00247 6.02924,-2.37377 22.82009,-4.65938 34.33334,-4.67352 12.49125,-0.0153 25.84767,2.22889 39.03577,6.55908 8.16397,2.68056 19.27002,7.36144 22.29756,9.39776 0.91667,0.61655 2.86667,1.66119 4.33333,2.32142 1.46667,0.66023 4.16667,2.29437 6,3.63141 1.83334,1.33704 4.53334,3.22824 6,4.20266 3.87136,2.57205 15.97884,13.84619 18.27769,17.01967 1.08217,1.49388 2.29405,2.91792 2.69307,3.16453 0.81673,0.50477 5.49893,6.53736 8.02924,10.34496 0.91667,1.3794 2.93537,4.42014 4.486,6.75722 1.55064,2.33708 2.82925,4.69923 2.84137,5.24923 0.0121,0.55 0.76841,2.30562 1.68066,3.90138 0.91225,1.59576 1.66802,3.24576 1.67949,3.66667 0.0115,0.4209 0.78983,2.26528 1.7297,4.09861 5.866,11.44236 8.82857,31.05402 7.89841,52.2859 -0.29832,6.80943 -0.5969,34.98052 -0.66351,62.60244 l -0.12111,50.22168 -2.11105,2.11166 -2.11104,2.11165 -26.79593,0.18895 c -28.91058,0.20386 -29.2522,0.16856 -32.19315,-3.32657 -1.38612,-1.6473 -1.65317,-2.65981 -1.65317,-6.26778 0,-3.03001 -0.27041,-4.40687 -0.91399,-4.65384 -0.50269,-0.1929 -3.61731,0.86652 -6.92138,2.35426 -3.30407,1.48774 -6.35473,2.70498 -6.77924,2.70498 -0.42451,0 -1.88489,0.55944 -3.24528,1.2432 -1.3604,0.68376 -3.67344,1.44899 -5.14011,1.70052 -1.46667,0.25152 -4.91667,1.18593 -7.66667,2.07646 -9.04678,2.92961 -34.76215,5.12555 -42.66666,3.64349 z"
       id="path87" />
    <path
       style="fill:#ffffff"
       d="m 593.84636,468.4778 c 12.44594,-1.43135 25.66292,-7.8226 35.42246,-17.12899 4.89263,-4.66547 13.25526,-16.37509 13.93874,-19.51747 0.20637,-0.94881 1.06927,-3.82512 1.91756,-6.39178 3.76565,-11.39378 2.62071,-28.55985 -2.77261,-41.56933 -1.78085,-4.29569 -8.07911,-13.12687 -11.96505,-16.77695 -8.46015,-7.94668 -11.24856,-9.65392 -25.91737,-15.86828 -8.10377,-3.43312 -30.68994,-3.16678 -39.53326,0.46618 -14.80346,6.08148 -14.47697,5.87664 -23.55641,14.77933 -6.69814,6.56777 -8.88569,9.16782 -10.18482,12.10538 -0.90996,2.05759 -1.96652,3.93393 -2.3479,4.16964 -0.38138,0.23571 -1.18032,2.13829 -1.77543,4.22796 -0.5951,2.08967 -1.49323,4.6994 -1.99585,5.7994 -2.39197,5.23494 -2.07484,27.44642 0.46801,32.77878 0.72881,1.52832 1.49993,3.92832 1.71359,5.33333 0.21366,1.40501 0.92002,3.15456 1.5697,3.88789 0.64968,0.73333 1.62807,2.38333 2.1742,3.66667 1.81195,4.25786 13.20007,16.27926 19.13484,20.19891 6.56437,4.33547 18.58645,8.86306 26.66666,10.04283 3.40118,0.4966 11.83064,0.39595 17.04294,-0.2035 z"
       id="path86" />
    <path
       style="fill:#000000"
       d="m 170.064,533.75718 c -0.80977,-0.19197 -2.39968,-1.49479 -3.53311,-2.89515 l -2.06079,-2.54611 V 468.5444 c 0,-58.06331 0.0429,-60.10711 1.50013,-71.51456 0.82508,-6.45868 1.79665,-13.30654 2.15905,-15.21745 1.01203,-5.33642 4.32153,-15.43648 5.91102,-18.0395 0.78365,-1.28333 1.42706,-2.78333 1.42981,-3.33333 0.003,-0.55 0.90275,-2.8 1.99999,-5 1.09724,-2.2 1.99611,-4.45088 1.99749,-5.00196 0.001,-0.55107 1.63014,-3.25107 3.61947,-6 1.98933,-2.74892 5.21433,-7.22082 7.16667,-9.93755 4.92364,-6.85137 19.86167,-21.60337 25.5497,-25.23152 2.56667,-1.63716 5.41667,-3.67676 6.33333,-4.53243 2.34913,-2.19282 25.51743,-13.31969 30.33334,-14.56797 2.2,-0.57023 5.5,-1.6061 7.33333,-2.30192 13.98845,-5.30915 43.62207,-6.26639 62.33333,-2.01352 9.01708,2.04949 23.14861,6.99025 29.66667,10.37227 14.76144,7.65925 23.87453,13.76074 31.14074,20.84968 2.46074,2.40071 5.31074,5.12669 6.33333,6.05774 1.02259,0.93105 3.65926,3.89032 5.85926,6.57616 2.2,2.68583 4.30432,5.22407 4.67626,5.64051 2.6884,3.0101 5.39741,7.18024 9.16512,14.10846 5.16268,9.49335 7.51475,14.97169 9.15154,21.31538 0.66225,2.56667 1.6761,5.76129 2.253,7.09917 0.5769,1.33788 1.32701,4.48788 1.66691,7 0.33991,2.51212 1.12344,7.4175 1.74119,10.90083 1.9796,11.16243 0.39995,31.71461 -3.30498,43 -2.50948,7.64397 -3.68228,11.75384 -3.68398,12.90989 -0.002,1.10743 -3.40268,8.1019 -8.63419,17.75678 -5.85958,10.81401 -14.28649,21.34353 -23.90882,29.87436 -2.81713,2.49757 -5.87205,5.24334 -6.78872,6.10171 -2.50087,2.34184 -14.44805,10.13588 -18.99999,12.39511 -2.2,1.09192 -4.9,2.52918 -6,3.19393 -1.1,0.66474 -3.5,1.76684 -5.33334,2.44911 -1.83333,0.68226 -3.93333,1.61457 -4.66666,2.07179 -0.73334,0.45721 -3.73334,1.45476 -6.66667,2.21677 -2.93333,0.762 -6.01462,1.67704 -6.8473,2.03341 -0.83269,0.35637 -6.08269,1.45811 -11.66667,2.44831 -11.3696,2.01616 -27.23724,2.76964 -34.52414,1.63939 -14.64093,-2.27091 -18.30203,-2.99867 -24.29522,-4.82947 -3.66667,-1.1201 -9.29374,-3.06206 -12.5046,-4.31548 -3.21087,-1.25342 -6.25377,-2.27895 -6.76201,-2.27895 -1.08058,0 -1.73339,1.42626 -1.73339,3.78711 0,2.64441 -1.92597,6.02271 -3.88011,6.80601 -1.84313,0.73879 -60.63723,1.40934 -63.52599,0.72451 z"
       id="path85" />
    <path
       style="fill:#ffffff"
       d="m 303.69871,465.07038 c 17.32905,-3.50394 25.83614,-7.97837 34.94171,-18.37809 5.28141,-6.03205 10.16301,-12.72547 10.16301,-13.93505 0,-0.36892 0.62038,-1.82826 1.37862,-3.24298 0.76069,-1.41927 1.79984,-5.4489 2.31835,-8.99012 0.51685,-3.52985 1.26541,-7.62129 1.66346,-9.09209 0.56721,-2.09584 0.49171,-3.75388 -0.34909,-7.66667 -0.59005,-2.74587 -1.3345,-6.51367 -1.65433,-8.37289 -0.65377,-3.80044 -4.43914,-14.05232 -5.41024,-14.65249 -0.34787,-0.215 -1.25825,-1.61749 -2.02306,-3.11665 -1.6545,-3.24308 -10.36051,-12.06328 -14.97802,-15.17447 -1.80346,-1.21514 -3.87902,-2.71813 -4.61236,-3.33997 -1.42295,-1.20661 -10.60156,-4.35768 -19.29222,-6.62313 -3.38101,-0.88135 -7.37716,-1.37955 -11.06548,-1.37955 -6.33943,0 -16.46595,1.85174 -19.93401,3.64514 -1.21689,0.62928 -3.72181,1.59235 -5.56647,2.14016 -3.84262,1.14113 -8.04864,4.08429 -15.14989,10.6011 -7.15328,6.56456 -9.39264,9.36772 -12.24472,15.32753 -1.39131,2.90734 -3.0869,6.34718 -3.76797,7.64411 -2.63184,5.01164 -3.17024,23.45011 -0.9434,32.30862 1.58602,6.30929 5.8856,14.92548 9.8139,19.66667 3.61094,4.35815 9.29773,10.01048 12.06218,11.98909 1.51511,1.08441 3.80475,2.71805 5.08808,3.63029 3.34994,2.38126 12.50425,5.47711 19.93313,6.74109 3.52012,0.59893 6.52521,1.21284 6.67798,1.36424 0.68047,0.67435 6.735,0.16295 12.95084,-1.09389 z"
       id="path84" />
    <path
       style="fill:#000000"
       d="m 777.13675,538.84654 c -8.60798,-2.09937 -15.24757,-6.91732 -20.31354,-14.74032 -2.12424,-3.28031 -2.73461,-5.00269 -3.39239,-9.57289 -1.16915,-8.12306 -0.49395,-12.62649 2.96653,-19.78634 2.70326,-5.59312 3.26498,-6.28387 7.80178,-9.59403 2.68883,-1.96184 5.94977,-4.02567 7.24653,-4.58631 3.31191,-1.43184 17.55766,-1.88816 23.56419,-0.75481 4.10353,0.77428 5.17872,1.32528 9.38082,4.80735 3.01163,2.49558 5.23335,4.96532 6.07942,6.75806 0.73333,1.55388 1.96669,3.70357 2.74079,4.7771 2.46655,3.42061 3.11457,6.64981 2.78557,13.88049 -0.26406,5.80282 -0.58493,7.29324 -2.3118,10.73805 -3.13898,6.26172 -4.41916,8.09344 -7.59186,10.86266 -7.85332,6.85457 -19.0176,9.63484 -28.95604,7.21099 z"
       id="path83" />
    <path
       style="fill:#ffffff"
       d="m 766.25082,510.19026 -0.21927,-8.25115 1.96015,-2.24978 c 1.07809,-1.23738 2.45946,-3.22477 3.06973,-4.41644 1.09343,-2.13516 1.0875,-2.16652 -0.40756,-2.15646 -2.13799,0.0144 -2.62644,0.48149 -5.21787,4.98979 -2.20127,3.82955 -2.29925,4.28409 -2.29925,10.66667 0,6.64336 0.78888,9.6656 2.52346,9.66759 0.60361,7e-4 0.75403,-2.1005 0.59061,-8.25022 z"
       id="path82" />
    <path
       style="fill:#ffffff"
       d="m 791.13675,528.8972 c 7.37272,-2.36511 12.00404,-6.80587 14.53594,-13.93783 0.98857,-2.78464 1.7974,-5.82932 1.7974,-6.76596 0,-2.72676 -4.62933,-11.71909 -7.43462,-14.44154 -1.41551,-1.37371 -3.64748,-3.00722 -4.95993,-3.63001 -3.28493,-1.5588 -10.43385,-2.50795 -12.62243,-1.67585 -0.95507,0.36312 -2.88373,0.66021 -4.2859,0.66021 -1.51853,0 -3.18582,0.51594 -4.12327,1.27595 -2.09096,1.69517 -1.45803,2.14417 1.7782,1.26144 4.95092,-1.35044 11.49646,-1.42645 14.18932,-0.16478 3.61433,1.6934 7.40913,4.86474 7.83063,6.54411 0.45648,1.81877 -0.68869,4.99083 -1.98079,5.48665 -0.52917,0.20307 -3.00868,-1.03326 -5.51001,-2.74738 -5.76416,-3.95009 -8.2914,-3.89285 -12.46659,0.28234 -2.55485,2.55485 -2.71722,2.95594 -2.96389,7.32142 -0.3393,6.00469 0.62707,8.81749 3.78001,11.00249 1.92315,1.33273 3.32223,1.73776 6.00277,1.73776 3.21177,0 3.58726,-0.16621 4.63084,-2.04991 2.06071,-3.71968 2.52217,-4.08229 5.64268,-4.43402 2.94819,-0.3323 3.11452,-0.2613 3.56168,1.52033 0.50269,2.00288 -1.05349,5.56762 -4.02038,9.20949 -1.45945,1.79149 -1.94318,1.93452 -7.64121,2.25941 -5.03109,0.28686 -5.95289,0.50374 -5.33015,1.2541 0.95402,1.14953 6.05242,1.16631 9.5897,0.0316 z"
       id="path81" />
    <path
       style="fill:#000000"
       d="m 390.97009,758.6647 c -0.45833,-0.18495 -0.83333,-1.14291 -0.83333,-2.12881 0,-2.40341 -3.50348,-6.54801 -5.9983,-7.09597 -1.09253,-0.23996 -2.15755,-0.7132 -2.36673,-1.05166 -0.20918,-0.33846 -0.91447,-0.61538 -1.5673,-0.61538 -2.28709,0 -3.56751,-5.27239 -1.85063,-7.62036 0.71897,-0.98325 1.43354,-1.12848 3.83333,-0.77912 1.6223,0.23618 5.07888,0.60316 7.6813,0.81552 4.52352,0.36911 4.7921,0.30927 6.10537,-1.36029 2.35401,-2.99264 3.95702,-10.09792 4.82555,-21.38908 0.45128,-5.86667 0.7118,-11.71626 0.57895,-12.9991 l -0.24154,-2.33243 -3.44602,4.66577 c -8.01588,10.85314 -25.38499,26.08563 -29.11166,25.53055 -1.6206,-0.24138 -3.2184,-4.31124 -2.35226,-5.99156 0.31945,-0.61972 2.71132,-3.29566 5.31528,-5.94653 4.53562,-4.61734 9.61921,-10.48672 12.09066,-13.95959 3.20393,-4.50213 6.504,-9.38978 6.504,-9.6329 0,-0.15029 1.5,-2.88002 3.33333,-6.06606 1.83334,-3.18605 3.33334,-6.19976 3.33334,-6.69715 0,-0.49738 0.3,-0.90433 0.66666,-0.90433 0.36667,0 0.66667,-1.1823 0.66667,-2.62732 0,-1.44503 -0.3,-2.81274 -0.66667,-3.03935 -0.36666,-0.22661 -0.66666,-1.09432 -0.66666,-1.92823 0,-0.83392 -0.17696,-1.69317 -0.39323,-1.90944 -0.32038,-0.32038 -7.74708,4.80276 -8.94011,6.16713 -2.12802,2.43365 -14.0272,9.33721 -16.09391,9.33721 -1.09985,0 -3.90609,-3.75288 -3.90609,-5.22376 0,-0.40318 1.725,-2.01777 3.83334,-3.58798 4.87131,-3.62798 4.2152,-3.04162 12.10024,-10.81393 7.63756,-7.52836 7.58241,-7.17132 1.89152,-12.24594 -1.51837,-1.35395 -3.26394,-2.9505 -3.87906,-3.5479 -0.61511,-0.59739 -2.8796,-2.37642 -5.03221,-3.95339 -5.65557,-4.1432 -6.04127,-5.10763 -3.3126,-8.28318 l 1.60123,-1.86346 3.06294,1.25977 c 1.68462,0.69287 3.06406,1.48477 3.06544,1.75977 0.001,0.275 0.38011,0.5 0.84163,0.5 0.77432,0 10.60603,6.41799 14.38334,9.38922 1.97253,1.5516 2.50313,1.2075 5.5622,-3.60713 1.20518,-1.89682 2.42165,-3.54876 2.70328,-3.67098 0.28163,-0.12222 0.51205,-0.47629 0.51205,-0.78682 0,-0.31053 0.91225,-2.53553 2.02723,-4.94444 1.60844,-3.47504 2.33357,-4.37985 3.51011,-4.37985 1.85404,0 13.12932,10.32432 13.12932,12.02199 0,0.74569 -1.07563,1.7131 -2.8712,2.58232 -3.07721,1.48966 -3.88836,2.16765 -8.33217,6.96438 l -2.87003,3.09797 h 10.43679 10.43679 l -0.23274,-12.16666 -0.23275,-12.16667 2.2274,-0.21348 c 1.22507,-0.11742 3.32477,0.27787 4.66599,0.87842 1.34123,0.60054 3.03859,1.34103 3.77192,1.64551 0.73334,0.30448 2.42868,1.03419 3.76742,1.62158 1.33875,0.58738 2.71725,1.06797 3.06334,1.06797 0.34609,0 1.1172,0.53917 1.71357,1.19816 1.01513,1.1217 0.89411,1.39665 -1.89667,4.30908 l -2.98099,3.11094 v 5.35758 5.35757 h 5.66667 5.66666 l 0.11886,-1.83333 c 0.0654,-1.00833 0.0965,-2.43333 0.0692,-3.16667 -0.0273,-0.73333 -0.13006,-5.38333 -0.22833,-10.33333 l -0.17867,-9 2.50968,-0.21089 c 1.38033,-0.116 3.49993,0.259 4.71024,0.83333 1.2103,0.57433 2.6625,1.04423 3.22712,1.04423 0.56461,0 1.21198,0.3 1.43859,0.66667 0.22661,0.36666 0.93797,0.66666 1.58079,0.66666 1.58731,0 6.75254,2.54466 6.75254,3.32664 0,0.34587 -1.35,2.14888 -3,4.0067 l -3,3.37783 v 5.31108 5.31108 h 2.4771 c 2.02384,0 3.03024,-0.53598 5.5,-2.92915 4.67537,-4.53038 5.2769,-4.50624 9.89808,0.3972 7.43553,7.88969 8.78512,9.53264 8.7883,10.69862 0.004,1.40928 0.47837,1.36898 -14.13795,1.20056 l -11.80781,-0.13606 -0.43554,1.73531 c -0.23955,0.95442 -0.22946,3.93442 0.0224,6.62221 0.50178,5.35467 -0.0177,6.49495 -3.5747,7.84736 -1.59051,0.60472 -1.63146,0.71279 -0.50825,1.34138 2.10328,1.17708 5.60156,0.0396 7.60663,-2.47333 1.09763,-1.37565 2.43097,-2.30406 3.30898,-2.30408 1.60156,-2e-5 10.86276,8.29249 10.86276,9.72655 0,0.46065 -0.92706,1.7646 -2.06013,2.89767 l -2.06013,2.06013 0.12723,26.82448 c 0.07,14.75347 0.0971,27.21655 0.0601,27.69575 -0.0942,1.22351 -9.92815,5.59602 -11.47877,5.10387 -1.214,-0.3853 -1.67987,-1.50588 -2.06837,-4.97513 l -0.18663,-1.66667 h -19.29094 -19.29095 l -0.59126,2.33333 c -0.72098,2.8453 -1.32874,3.42957 -5.16017,4.96073 -1.65,0.65939 -3.63925,1.49454 -4.42056,1.85589 -0.7813,0.36134 -1.9813,0.47903 -2.66666,0.26152 -1.19881,-0.38047 -1.24393,-1.84442 -1.18858,-38.57014 0.0658,-43.64049 -0.49346,-40.4068 6.26627,-36.23445 2.13244,1.31621 4.33307,2.39312 4.89029,2.39312 1.19754,0 2.01168,-5.99338 1.66822,-12.28066 -0.20265,-3.7094 -0.3351,-3.98698 -2.19746,-4.60505 -1.78006,-0.59076 -7.81691,-9.7e-4 -13.3794,1.30714 -0.86594,0.20364 -2.298,-0.42434 -3.93584,-1.72593 -1.41604,-1.12533 -2.66243,-1.95823 -2.76977,-1.8509 -0.10733,0.10734 0.71413,2.88621 1.82548,6.17528 2.50675,7.4188 3.00368,10.03295 4.36829,22.98012 0.94576,8.97324 0.98097,11.95667 0.2675,22.66667 -0.91339,13.71096 -2.31507,20.64733 -5.35119,26.48105 -2.31592,4.4499 -7.30429,9.58047 -10.70992,11.01523 -4.18387,1.76262 -6.06028,2.50467 -6.19803,2.45108 -0.0744,-0.0289 -0.5103,-0.20394 -0.96864,-0.38888 z"
       id="path80" />
    <path
       style="fill:#ffffff"
       d="m 455.14903,686.42941 c 0.91789,-0.76178 1.24837,-8.00456 0.6015,-13.18215 l -0.44048,-3.52567 -5.41998,0.19233 -5.41998,0.19234 -0.33333,6.89465 c -0.29704,6.14395 -0.49784,7.02761 -1.84423,8.11569 -1.34966,1.09072 -1.38523,1.24916 -0.33333,1.48463 2.57357,0.57609 12.44357,0.44752 13.18983,-0.17182 z"
       id="path79" />
    <path
       style="fill:#ffffff"
       d="m 469.99125,704.60626 -0.18782,-7.83334 -6.5,-0.1908 -6.5,-0.19081 v 8.02414 8.02414 h 6.68782 6.68782 z"
       id="path78" />
    <path
       style="fill:#ffffff"
       d="m 442.65792,704.60626 -0.18783,-7.83334 -4.31276,-0.20227 c -7.61364,-0.35708 -7.3539,-0.64723 -7.3539,8.21498 v 7.65396 h 6.02115 6.02116 z"
       id="path77" />
    <path
       style="fill:#ffffff"
       d="m 469.80343,730.43959 v -8.33333 l -6.5,-0.19081 -6.5,-0.19081 v 8.71495 8.71495 l 6.5,-0.19081 6.5,-0.19081 z"
       id="path76" />
    <path
       style="fill:#ffffff"
       d="m 442.80343,730.41359 v -8.69262 l -5.83334,0.19262 -5.83333,0.19263 -0.18968,7.6259 c -0.10432,4.19425 -0.0387,8.01925 0.14575,8.5 0.24041,0.6265 1.94647,0.8741 6.02301,0.8741 h 5.68759 z"
       id="path75" />
    <path
       style="fill:#000000"
       d="m 313.6286,759.20643 c -1.54942,-0.44541 -3.61465,-3.27738 -4.48204,-6.14607 -0.72416,-2.39495 -5.25591,-11.58516 -5.83988,-11.84303 -0.27679,-0.12222 -0.50325,-0.54391 -0.50325,-0.93708 0,-0.39316 -0.75,-1.69815 -1.66667,-2.89996 -0.91666,-1.20181 -1.66666,-2.76467 -1.66666,-3.47302 0,-1.80957 2.51449,-4.80105 4.03552,-4.80105 2.76181,0 16.60507,10.56214 16.65234,12.70542 0.0117,0.52868 0.46167,1.54358 1,2.25533 1.30488,1.7252 1.24962,7.26704 -0.10084,10.11291 -1.02231,2.15438 -4.50288,5.66996 -5.47151,5.52655 -0.24686,-0.0366 -1.12752,-0.26155 -1.95701,-0.5 z"
       id="path74" />
    <path
       style="fill:#000000"
       d="m 244.49108,759.30078 c -1.08846,-0.17118 -2.81346,-0.90542 -3.83333,-1.63163 -1.55506,-1.1073 -1.85432,-1.80189 -1.85432,-4.30393 0,-2.73009 0.28762,-3.25009 3.38581,-6.12127 3.39094,-3.14249 7.38271,-8.64125 8.24477,-11.35737 0.36723,-1.15705 0.19095,-1.44703 -0.87964,-1.44703 -0.73641,0 -1.5779,-0.375 -1.86999,-0.83333 -0.29209,-0.45834 -0.5348,-13.88334 -0.53934,-29.83334 l -0.008,-29 -2.8661,-4.26315 c -5.60545,-8.33775 -5.85958,-9.50508 -2.42417,-11.1353 3.01373,-1.4301 9.46048,-7.85439 13.21621,-13.17015 3.54584,-5.01869 6.4074,-10.14092 6.4074,-11.46934 0,-0.54485 0.72094,-1.31913 1.6021,-1.72061 1.42848,-0.65086 2.2851,-0.25378 7.90422,3.6639 8.23402,5.74081 8.38635,5.93891 5.91839,7.69625 -1.08013,0.76912 -2.1903,1.39841 -2.46705,1.39841 -1.60515,0 -15.32254,11.85734 -14.57834,12.60154 0.59509,0.59509 19.83941,0.001 20.95401,-0.64644 0.57814,-0.33603 0.6674,-0.58978 0.21159,-0.6015 -0.43362,-0.0112 -0.96205,-0.56739 -1.17429,-1.23608 -0.21223,-0.6687 -0.94575,-1.81676 -1.63003,-2.55125 -2.21062,-2.37282 -2.30852,-3.95164 -0.34102,-5.49928 2.67068,-2.10076 4.3877,-1.74792 10.77421,2.21406 5.92116,3.6733 7.19278,4.69008 10.15954,8.12347 l 1.66667,1.92881 0.18115,-12.85982 c 0.15315,-10.8721 0.34041,-12.92093 1.21148,-13.25519 0.56668,-0.21745 1.37016,-0.0555 1.78551,0.35982 0.41535,0.41535 1.25051,0.75519 1.8559,0.75519 0.60539,0 2.51126,0.75 4.23527,1.66667 1.72402,0.91666 3.57277,1.66666 4.10834,1.66666 1.81807,0 4.9175,2.17668 4.94547,3.47313 0.006,0.26022 -1.18979,1.58341 -2.65646,2.94042 -2.52498,2.3362 -2.66666,2.67414 -2.66666,6.36021 0,2.16349 0.29761,3.89291 0.66993,3.89291 0.71826,0 5.02369,-2.07259 10.17438,-4.89783 3.51636,-1.92879 10.15528,-6.6895 10.81321,-7.75405 0.23164,-0.3748 0.87899,-0.68145 1.43855,-0.68145 1.47429,0 11.58121,10.52995 11.16013,11.62725 -0.33436,0.87133 -1.28792,1.33535 -4.92287,2.39555 -1.27521,0.37193 -0.8788,0.50463 1.68779,0.56499 l 3.35446,0.0789 0.77987,2.83333 c 0.42893,1.55834 0.96324,4.34043 1.18735,6.18242 0.34717,2.8535 0.74656,3.58144 2.699,4.91927 1.26041,0.86365 2.29153,2.14203 2.29153,2.84104 0,1.52406 -1.71407,4.30043 -4,6.479 -3.51852,3.35328 -5.2745,3.67372 -21.64648,3.95023 -13.63431,0.23028 -15.07781,0.35758 -13.16666,1.16115 2.80417,1.17907 2.75086,2.78621 -0.18686,5.63356 -2.18073,2.11365 -2.33333,2.53641 -2.33333,6.46411 0,3.66676 0.15958,4.20256 1.2517,4.20256 0.68844,0 1.62517,-0.45 2.08163,-1 0.45646,-0.55 1.21305,-1 1.6813,-1 0.46826,0 2.41167,-1.05 4.3187,-2.33334 1.90702,-1.28333 3.59983,-2.33333 3.7618,-2.33333 0.38578,0 1.66906,-1.04428 5.58903,-4.54812 2.591,-2.31595 3.46213,-2.75383 4.43875,-2.23116 1.73329,0.92763 9.21042,10.64147 9.21042,11.96562 0,0.60919 -0.75,1.48705 -1.66667,1.95081 -1.63694,0.82816 -1.62249,0.84337 0.80988,0.85302 3.06179,0.0121 3.56403,0.84935 4.20526,7.00983 0.56248,5.40391 1.82705,8.33333 3.59732,8.33333 1.27683,0 2.06849,1.25271 2.03566,3.2212 -0.0269,1.61345 -3.60599,6.09833 -6.05541,7.58791 -1.39933,0.85099 -3.50617,1.31925 -6.28271,1.3964 l -4.17738,0.11607 2.76703,2.49647 c 1.52186,1.37306 3.01914,2.5007 3.32729,2.50588 1.04659,0.0176 6.91842,6.60011 8.09015,9.06932 1.70057,3.58369 1.13733,8.61368 -1.36299,12.17206 -2.08332,2.96491 -3.92115,3.83849 -6.6399,3.15613 -1.68526,-0.42298 -2.22352,-1.31692 -4.64916,-7.72144 -0.62492,-1.65 -1.57623,-3.75 -2.11402,-4.66666 -0.53779,-0.91667 -1.32254,-2.49167 -1.7439,-3.5 -0.42136,-1.00834 -1.00033,-1.83334 -1.28661,-1.83334 -0.28628,0 -0.52051,-0.2993 -0.52051,-0.66512 0,-0.36582 -1.01026,-2.09082 -2.24502,-3.83333 -1.23476,-1.74252 -2.53533,-4.06821 -2.89015,-5.16821 l -0.64512,-2 -9.31258,-0.0616 c -5.12192,-0.0339 -10.14216,-0.26982 -11.15608,-0.5243 -2.06663,-0.51869 -5.54504,-3.78543 -6.38604,-5.99745 -0.30381,-0.79909 -0.66023,-10.8906 -0.79203,-22.4256 -0.22343,-19.55376 -0.16071,-20.98791 0.92702,-21.19742 1.37062,-0.26399 1.4622,-1.00785 0.36985,-3.00411 -0.43825,-0.80089 -0.96325,-2.55591 -1.16666,-3.90003 l -0.36985,-2.44386 -2.76447,3.00935 c -2.67529,2.91229 -2.72367,3.04428 -1.5,4.09203 1.79589,1.53768 1.57019,3.07723 -0.73553,5.01737 l -2,1.68289 v 17.27689 c 0,9.50229 -0.2752,18.14666 -0.61155,19.20971 -0.33636,1.06305 -0.8028,2.80055 -1.03654,3.86112 -0.50943,2.31145 -5.70377,7.55028 -8.07665,8.14584 -1.67244,0.41975 -1.65469,0.45821 1.62,3.50846 5.06878,4.7214 6.7714,7.92748 6.7714,12.75073 0,6.29279 -3.24259,10.66666 -7.90778,10.66666 -2.57647,0 -4.37169,-2.25283 -5.45145,-6.84106 -0.97926,-4.16115 -4.22046,-12.61109 -6.02102,-15.69704 -1.94075,-3.32624 -1.6669,-5.15528 1.04808,-7.00016 2.18292,-1.48333 2.25867,-1.65131 1.16666,-2.58728 -0.6423,-0.55053 -2.51782,-1.52423 -4.16782,-2.16379 -4.13942,-1.60448 -4.66667,-2.17436 -4.66667,-5.044 0,-3.65762 1.01663,-4.16479 7.81194,-3.89721 l 5.85473,0.23054 v -3 -3 h -9.33333 -9.33334 l -0.43721,9.33334 c -0.24047,5.13333 -0.43422,9.70833 -0.43056,10.16666 0.004,0.45834 0.0262,2.70834 0.05,5 0.10763,10.33625 -3.10829,19.82492 -7.72667,22.79773 -1.72949,1.11327 -5.34946,1.66295 -8.10129,1.23017 z"
       id="path73" />
    <path
       style="fill:#ffffff"
       d="m 337.95298,671.18279 c 1.70048,-0.15952 2.85045,-3.94243 2.85045,-9.3768 0,-2.95154 -0.10343,-5.36644 -0.22985,-5.36644 -0.12642,0 -2.00142,0.59263 -4.16667,1.31694 -2.16525,0.72432 -4.45164,1.32432 -5.08086,1.33334 -0.62923,0.009 -2.12923,0.43756 -3.33334,0.95231 -1.2041,0.51476 -3.53928,1.29896 -5.18928,1.74266 -2.96986,0.79862 -3.93937,1.12922 -7.5,2.55745 -1.61703,0.64862 -1.83333,1.0871 -1.83333,3.71641 v 2.98102 l 3.83333,0.19994 c 3.42851,0.17882 18.58207,0.13711 20.64955,-0.0568 z"
       id="path72" />
    <path
       style="fill:#ffffff"
       d="m 282.89438,672.77288 c 1.27089,-1.3966 2.74937,-2.33333 3.68284,-2.33333 1.61119,0 1.84916,-0.46956 1.15488,-2.27881 -0.52483,-1.36769 -2.53451,-1.33132 -13.262,0.24005 -12.93753,1.89509 -19.98051,3.65828 -19.26129,4.822 0.88554,1.43283 3.76606,1.80083 14.41179,1.84117 l 11.1505,0.0423 z"
       id="path71" />
    <path
       style="fill:#ffffff"
       d="m 280.13676,686.46976 c 0,-1.74731 -2.46461,-2.14805 -11.66666,-1.89697 -7.02743,0.19175 -7.34222,0.26267 -7.54637,1.70009 -0.21256,1.49667 -0.19145,1.5 9.5,1.5 9.19353,0 9.71303,-0.0697 9.71303,-1.30312 z"
       id="path70" />
    <path
       style="fill:#ffffff"
       d="m 279.80343,699.10622 v -1.66667 l -9.5,-0.18497 -9.5,-0.18497 v 2.03661 2.03661 l 9.5,-0.18498 9.5,-0.18497 z"
       id="path69" />
    <path
       style="fill:#ffffff"
       d="m 339.78631,715.80599 c 1.46554,-2.83405 1.43857,-12.69977 -0.0347,-12.69977 -0.86467,0 -15.39934,4.47632 -18.94815,5.83556 -0.55,0.21066 -2.35,0.87668 -4,1.48005 -2.63214,0.96252 -3.0262,1.36563 -3.21364,3.28751 -0.4045,4.1474 -0.6695,4.06354 12.84226,4.06354 h 12.33714 z"
       id="path68" />
    <path
       style="fill:#000000"
       d="m 582.361,760.06232 c -0.22032,-0.57415 -0.26163,-7.31351 -0.0918,-14.97637 0.16984,-7.66285 0.0918,-14.28365 -0.17353,-14.71287 -0.66933,-1.08301 -28.76337,-0.98102 -31.40701,0.11401 -1.47282,0.61006 -2.1091,0.59659 -2.90195,-0.0614 -0.55853,-0.46354 -1.2023,-0.656 -1.4306,-0.4277 -0.22831,0.2283 -0.37912,5.96942 -0.33516,12.75805 l 0.0799,12.34295 -1.78554,1.16993 c -2.2886,1.49954 -5.91985,2.88613 -8.6786,3.31389 l -2.16667,0.33596 -0.0818,-10.57294 c -0.045,-5.81512 -0.0142,-16.61477 0.0683,-23.99924 0.0826,-7.38447 -0.0364,-14.01399 -0.26438,-14.73226 -0.35909,-1.13139 -1.08116,-1.31863 -5.40165,-1.40076 l -4.98716,-0.0948 v 3.85366 c 0,2.11951 -0.45,5.58132 -1,7.69291 -0.55,2.1116 -1,4.56051 -1,5.44203 0,0.88153 -0.27969,2.29189 -0.62153,3.13414 -0.34185,0.84226 -1.1266,3.33137 -1.74389,5.53137 -0.6173,2.2 -1.50979,4.9 -1.98332,6 -5.21746,12.12007 -9.66171,19.66667 -11.58183,19.66667 -2.0704,0 -4.73609,-2.5788 -4.73609,-4.58172 0,-1.00005 0.28762,-2.10591 0.63917,-2.45745 0.35154,-0.35154 1.72951,-3.93654 3.06216,-7.96667 3.33135,-10.07452 3.69308,-11.42029 4.29908,-15.99416 0.29148,-2.2 0.89649,-5.35 1.34448,-7 0.59869,-2.20508 0.81096,-13.28976 0.80112,-41.83333 -0.01,-28.79755 0.18483,-38.85241 0.75363,-38.90713 2.03208,-0.1955 3.97808,0.29599 7.06157,1.78352 1.85107,0.89298 3.67113,1.62361 4.04457,1.62361 0.37344,0 1.27491,0.3 2.00326,0.66667 0.72836,0.36666 1.92022,0.96666 2.64858,1.33333 0.72836,0.36667 1.5145,0.66667 1.74698,0.66667 0.23248,0 0.23278,-3.00828 6.6e-4,-6.68505 -0.411,-6.5103 -0.3826,-6.70031 1.08635,-7.26863 1.02685,-0.39728 1.97976,-0.28499 2.98493,0.35172 0.8121,0.51441 1.92123,0.93529 2.46473,0.93529 0.54349,0 2.39873,0.75 4.12274,1.66667 1.72402,0.91666 3.6434,1.66666 4.26529,1.66666 1.18402,0 3.33736,1.98243 3.33736,3.07247 0,0.34877 -1.05,1.62452 -2.33333,2.835 l -2.33333,2.20086 v 12.3608 c 0,11.6763 0.0646,12.31013 1.16666,11.44583 0.64167,-0.50323 1.40658,-1.28996 1.6998,-1.74829 1.13212,-1.76963 3.73846,-0.90702 5.78166,1.91353 l 1.98982,2.74687 0.18103,-13.23821 c 0.17155,-12.54502 0.24947,-13.25137 1.48819,-13.48948 0.71894,-0.13819 2.21894,0.19086 3.33333,0.73122 4.11166,1.99371 5.4373,2.41191 8.93696,2.81937 3.71813,0.43288 6.08921,-0.64274 6.08921,-2.76234 0,-0.49815 0.2701,-1.42665 0.60023,-2.06334 0.33012,-0.63669 1.11659,-2.95762 1.74772,-5.15762 1.84143,-6.41894 2.82204,-8.33333 4.26859,-8.33333 0.71763,0 1.47515,0.27567 1.68339,0.6126 0.37458,0.60609 8.32186,5.29053 10.48983,6.18312 0.61769,0.25432 1.43866,1.05207 1.82437,1.77277 0.73043,1.36481 0.22856,1.79753 -5.50372,4.74532 -1.03928,0.53444 -2.46082,1.77392 -3.15899,2.75441 l -1.26939,1.7827 2.15899,0.33826 c 1.18744,0.18604 5.90898,0.2136 10.49232,0.0612 8.20653,-0.27279 8.35869,-0.30625 10,-2.19904 1.57281,-1.81381 2.61934,-2.31396 4.45762,-2.13038 0.98341,0.0982 8.75888,7.31115 9.64217,8.94459 0.50806,0.93955 0.18505,1.72658 -1.493,3.63778 l -2.14134,2.43884 0.37811,21.90597 0.3781,21.90598 -1.99867,1.21546 c -1.09926,0.6685 -3.67232,1.74189 -5.71789,2.3853 -4.48495,1.41069 -5.75125,0.86835 -6.04535,-2.58912 l -0.20691,-2.43248 h -3.62642 c -3.55987,0 -5.07394,1.03502 -2.12642,1.45363 1.9851,0.28193 2.3374,3.08723 0.61931,4.93139 -2.05399,2.20469 -2.78598,4.01878 -2.78598,6.90448 v 2.7105 h 6.40239 6.40238 l 3.98925,-3.33334 c 2.19408,-1.83333 4.18801,-3.32874 4.43094,-3.32312 0.92311,0.0213 2.03364,1.14889 6.22766,6.32312 5.51782,6.80744 6.06837,7.82194 5.02155,9.25319 -0.69693,0.95286 -2.86159,1.1492 -15.8075,1.4338 -8.25,0.18137 -15.42176,0.32599 -15.93723,0.32138 -0.78543,-0.007 -0.87866,2.07018 -0.57563,12.82497 0.19888,7.05833 0.2191,13.21292 0.0449,13.67686 -0.17416,0.46394 -1.71513,1.44946 -3.42437,2.19005 -1.70924,0.74058 -3.62864,1.636 -4.26533,1.9898 -1.82693,1.01522 -5.16621,0.7771 -5.61814,-0.40061 z"
       id="path67" />
    <path
       style="fill:#ffffff"
       d="m 579.39602,666.2523 c 0,-2.66965 -0.23132,-5.2282 -0.51405,-5.68565 -0.33005,-0.53404 -2.57496,-0.90034 -6.27204,-1.02341 -6.72595,-0.22388 -6.54251,-0.40157 -6.94774,6.72964 l -0.27466,4.83334 h 7.00425 7.00424 z"
       id="path66" />
    <path
       style="fill:#ffffff"
       d="m 603.42003,670.67483 c 0.34389,-0.29897 0.12341,-10.38415 -0.23485,-10.74241 -0.13954,-0.13954 -2.40009,-0.32997 -5.02344,-0.42317 -5.66674,-0.20133 -5.78695,-0.0698 -5.97266,6.53379 -0.0896,3.18633 0.13895,4.77176 0.74244,5.15014 0.79759,0.50006 9.83056,0.0536 10.48851,-0.51835 z"
       id="path65" />
    <path
       style="fill:#ffffff"
       d="m 529.31846,660.99453 c -0.13448,-8.96431 -0.39825,-12.18373 -1.01504,-12.38889 -0.47249,-0.15717 -0.83333,0.274 -0.83333,0.99578 0,0.70014 -1.05,2.14846 -2.33333,3.21849 l -2.33334,1.9455 v 9.17041 9.1704 h 3.34838 3.34837 z"
       id="path64" />
    <path
       style="fill:#ffffff"
       d="m 603.34172,691.93955 c 0.32187,-0.64167 0.44994,-3.31751 0.28459,-5.94631 l -0.30061,-4.77965 -4.18546,-0.22035 c -2.302,-0.1212 -5.04451,-0.0683 -6.09447,0.11748 -1.80498,0.31943 -1.95444,0.61007 -2.7426,5.33333 -0.45848,2.74753 -0.69289,5.3705 -0.52093,5.82883 0.21995,0.58622 2.19003,0.83334 6.64347,0.83334 5.36195,0 6.42036,-0.17855 6.91601,-1.16667 z"
       id="path63" />
    <path
       style="fill:#ffffff"
       d="m 576.34887,690.10622 c 0.30999,-1.46667 0.71804,-4.09167 0.90677,-5.83334 l 0.34313,-3.16666 h -5.31604 c -3.48675,0 -5.52357,0.28675 -5.91912,0.83333 -0.67971,0.93924 -0.59912,9.35832 0.10042,10.4902 0.27822,0.45016 2.17145,0.65892 4.88766,0.53895 l 4.43355,-0.19582 z"
       id="path62" />
    <path
       style="fill:#ffffff"
       d="m 582.25914,717.27288 c 0.11602,-1.00833 0.10736,-3.42264 -0.0193,-5.36512 l -0.23021,-3.53179 -3.12104,2.86512 c -1.71657,1.57582 -4.76297,3.98749 -6.76979,5.35927 l -3.64875,2.49414 6.78905,0.006 6.78905,0.006 z"
       id="path61" />
    <path
       style="fill:#ffffff"
       d="m 550.31197,717.14085 c 5.64771,-2.86434 12.00383,-6.78384 13.23632,-8.16218 0.59301,-0.66318 1.28015,-1.20579 1.52699,-1.20579 0.98731,0 4.39481,-2.9761 4.39481,-3.8384 0,-1.64682 -2.9348,-0.60523 -3.88239,1.37789 -0.49219,1.03006 -1.695,2.18734 -2.67291,2.57174 -0.97792,0.3844 -2.2661,0.94611 -2.86263,1.24824 -2.36143,1.19602 -6.04601,1.50605 -6.67628,0.56176 -0.33818,-0.50668 -0.54583,-6.62123 -0.46143,-13.58789 l 0.15344,-12.66667 h -14.96557 -14.96556 l -0.18783,7.83333 -0.18782,7.83334 h 5.91618 5.91617 l 1.25659,-2.33334 c 1.49143,-2.76942 3.36658,-3.03782 5.6958,-0.81528 0.875,0.83492 2.79091,2.39406 4.25757,3.46475 4.46146,3.25694 4.72814,4.63224 1.59104,8.20519 -1.86375,2.1227 -2.03388,2.66859 -1.66667,5.34773 0.22493,1.64104 0.40897,3.69184 0.40897,4.55733 0,0.86549 0.075,1.56982 0.16666,1.56517 0.0917,-0.005 1.89552,-0.88526 4.00855,-1.95692 z"
       id="path60" />
    <path
       style="fill:#000000"
       d="m 463.45499,876.41132 c -0.98468,-1.83989 -0.55508,-6.04924 0.68177,-6.68022 0.55,-0.28059 2.5,-0.76097 4.33333,-1.06752 l 3.33334,-0.55737 0.19077,-35.66666 c 0.10492,-19.61667 0.0163,-36.64167 -0.19688,-37.83333 -0.36574,-2.04421 -0.54796,-2.16667 -3.2241,-2.16667 -3.61174,0 -4.43646,-0.86752 -4.43646,-4.66667 0,-1.68666 0.36,-3.42666 0.8,-3.86666 0.97277,-0.97278 33.85491,-1.11238 40.36109,-0.17136 7.7361,1.11891 13.82168,4.99384 16.47192,10.48832 0.67641,1.40234 1.4857,3.07063 1.79841,3.70732 0.74806,1.52305 0.73749,16.32596 -0.012,16.78916 -0.31931,0.19735 -0.75594,1.23571 -0.97029,2.30749 -0.40815,2.04075 -5.27533,7.58238 -7.28248,8.29163 -1.70767,0.60342 -1.43814,1.34375 1,2.74667 5.21833,3.00266 11.16666,11.68197 11.16666,16.29347 0,1.10107 0.3,2.18735 0.66667,2.41396 0.36666,0.22661 0.66666,2.62661 0.66666,5.33333 0,2.70672 -0.3,5.10672 -0.66666,5.33334 -0.36667,0.22661 -0.66667,1.15627 -0.66667,2.0659 0,4.27525 -6.66928,12.34877 -12.33333,14.93016 -6.50765,2.96585 -9.50683,3.28841 -30.80988,3.31352 -19.61241,0.0231 -20.16241,-0.0121 -20.87189,-1.33781 z"
       id="path59" />
    <path
       style="fill:#ffffff"
       d="m 501.6458,821.60621 c 7.31958,-4.0911 10.53228,-13.62724 7.20559,-21.3881 -1.38784,-3.23771 -5.28453,-6.44523 -7.83004,-6.44523 -0.80991,0 -1.65798,-0.3 -1.88459,-0.66666 -0.22661,-0.36667 -3.05933,-0.66667 -6.29492,-0.66667 -5.53724,0 -5.90653,0.0881 -6.28489,1.5 -0.55081,2.05535 -0.52881,27.50249 0.0242,28.05555 0.81297,0.81297 13.5003,0.48545 15.0646,-0.38889 z"
       id="path58" />
    <path
       style="fill:#ffffff"
       d="m 504.26043,867.60457 c 7.59602,-3.94086 10.95214,-13.46428 8.17961,-23.21069 -1.96791,-6.91788 -3.13194,-8.36303 -8.87328,-11.01629 -3.17866,-1.46896 -4.31137,-1.62907 -10.33333,-1.46059 l -6.76334,0.18921 -0.17828,17.66667 c -0.15014,14.87896 -0.0244,17.77925 0.79684,18.38014 1.34801,0.98632 15.0575,0.54845 17.17178,-0.54845 z"
       id="path57" />
    <path
       style="fill:#000000"
       d="m 533.07157,876.76864 c -0.84444,-1.29041 -0.80492,-6.6812 0.0553,-7.54141 0.2196,-0.2196 1.81166,-0.56167 3.53792,-0.76015 l 3.13864,-0.36087 0.16358,-35 c 0.09,-19.25 -0.003,-36.27499 -0.20752,-37.83333 l -0.37109,-2.83333 h -2.97565 c -2.58074,0 -3.06194,-0.22695 -3.62582,-1.71007 -0.89582,-2.3562 -0.77929,-5.06396 0.27787,-6.4566 0.80344,-1.0584 2.49145,-1.16666 18.18969,-1.16666 19.13141,0 23.2546,0.48174 29.3747,3.43204 10.31498,4.97252 14.86028,17.30329 10.81007,29.32618 -2.34748,6.96838 -5.64338,10.79992 -12.20283,14.18601 -2.07148,1.06932 -3.76903,2.11932 -3.77232,2.33333 -0.007,0.44612 7.48457,18.92122 9.45017,23.30561 0.71913,1.60409 1.89666,4.45409 2.61672,6.33334 2.38074,6.21336 2.46494,6.30328 6.35726,6.78959 1.96078,0.24499 4.59366,0.25246 5.85083,0.0166 1.99523,-0.37431 2.41999,-0.82273 3.34173,-3.52786 0.58077,-1.70448 1.05595,-3.64968 1.05595,-4.32267 0,-0.67299 0.26456,-1.74455 0.58791,-2.38124 0.54356,-1.07028 1.35646,-4.03889 2.82713,-10.32429 0.32173,-1.375 0.84978,-3.625 1.17346,-5 0.32368,-1.375 1.10531,-4.3 1.73695,-6.5 0.63165,-2.2 1.39772,-5.2 1.70239,-6.66667 0.30466,-1.46666 1.04647,-4.46666 1.64845,-6.66666 0.60198,-2.2 1.23545,-4.75 1.40771,-5.66667 0.17226,-0.91667 0.73059,-3.16667 1.24075,-5 0.92102,-3.30985 1.92695,-7.1911 3.02373,-11.66667 0.31449,-1.28333 1.03974,-3.8897 1.61166,-5.79193 0.57192,-1.90223 1.04098,-4.15223 1.04235,-5 0.007,-4.10088 4.7992,-7.90761 11.25519,-8.93996 3.09772,-0.49535 3.46892,-0.0166 4.96121,6.39856 0.6397,2.75 1.44296,6.05 1.78502,7.33334 1.32475,4.97015 3.49827,13.78949 4.02534,16.33333 0.30388,1.46666 1.03737,4.61666 1.62998,7 0.59261,2.38333 1.35649,5.53333 1.69752,7 0.34103,1.46666 1.0875,4.61666 1.65882,7 0.57131,2.38333 1.29307,5.53333 1.60391,7 0.31084,1.46666 1.19862,5.03965 1.97284,7.93997 0.77422,2.90032 1.40768,5.82939 1.40768,6.50905 0,0.67965 0.26048,1.75666 0.57885,2.39336 0.31836,0.63669 1.07953,3.25762 1.69148,5.82428 0.61195,2.56667 1.48287,5.03736 1.93538,5.49042 0.89986,0.90097 9.35866,1.67301 11.67979,1.06602 l 1.44783,-0.37861 v -37.92225 -37.92224 h -2.95238 c -3.66076,0 -5.04762,-1.26689 -5.04762,-4.61096 0,-4.22244 1.14743,-4.72568 10.71916,-4.70117 8.91467,0.0228 9.66189,0.26194 11.39194,3.64546 0.56244,1.1 2.82896,5.45 5.0367,9.66667 2.20773,4.21666 6.49778,12.46666 9.53344,18.33333 3.03565,5.86667 6.52423,12.60239 7.7524,14.96826 1.22816,2.36588 2.23302,4.69088 2.23302,5.16667 0,0.47579 0.225,0.86791 0.5,0.87139 0.275,0.003 1.08886,1.34588 1.80857,2.98312 2.88961,6.57347 3.0531,5.36565 2.8662,-21.17392 l -0.17477,-24.81552 -3.86281,-0.20081 c -3.42525,-0.17807 -3.935,-0.39066 -4.5,-1.87674 -0.98871,-2.60049 -0.75552,-5.27537 0.56398,-6.4695 1.06763,-0.96619 4.14163,-1.08795 27.6505,-1.0952 20.4642,-0.006 27.60197,0.21238 31.54303,0.96642 2.80153,0.53603 5.4338,1.241 5.8495,1.56662 0.41569,0.32562 1.5058,0.77119 2.42247,0.99017 2.48097,0.59267 9.48431,5.92171 12.1223,9.22421 3.74319,4.68608 5.20653,7.69758 7.72357,15.89483 1.73769,5.65914 2.39465,16.14818 1.54661,24.69307 -2.07805,20.93857 -8.10927,31.47362 -21.72581,37.94966 -5.09984,2.42548 -8.68463,2.85971 -25.94608,3.14287 -12.49146,0.20491 -16.06387,0.0759 -16.48979,-0.59535 -0.29904,-0.4713 -0.54831,-2.27136 -0.55392,-4.00013 -0.012,-3.68588 1.41936,-4.89866 5.08028,-4.30458 1.68062,0.27273 2.38738,0.0825 2.82656,-0.76094 0.7223,-1.38713 0.99514,-51.31341 0.3567,-65.27246 L 739.278,792.43953 h -7.18431 -7.18432 l -0.38487,1.83333 c -0.21168,1.00834 -0.33999,19.53333 -0.28512,41.16667 0.0549,21.63333 -0.116,40.00833 -0.37969,40.83333 -0.41049,1.28428 -0.94583,1.5 -3.72245,1.5 -3.90438,0 -3.81164,0.11379 -10.32258,-12.66667 -5.64033,-11.07151 -16.45793,-32.18979 -22.59149,-44.10343 -2.51915,-4.89311 -4.99415,-9.48832 -5.5,-10.21157 -0.78785,-1.12643 -0.91974,2.90082 -0.91974,28.08411 v 29.39912 l 3.62626,0.30072 c 4.50291,0.37341 5.70707,1.31978 5.70707,4.48526 0,4.96931 1.31173,4.7382 -26.98891,4.75514 -28.6996,0.0172 -27.24507,0.30816 -26.87373,-5.37601 0.1896,-2.90237 0.28277,-3.02027 2.86265,-3.62271 1.46666,-0.34249 2.79091,-0.71674 2.94276,-0.83166 0.25974,-0.19656 -1.33437,-8.40099 -2.63189,-13.54563 -0.32366,-1.28334 -0.95774,-3.90834 -1.40905,-5.83334 l -0.82056,-3.5 h -8.89046 c -10.16149,0 -9.35783,-0.52324 -10.87143,7.07817 -0.4295,2.15701 -1.0877,5.12183 -1.46265,6.5885 -0.37495,1.46667 -0.7211,4.1525 -0.76923,5.96852 -0.0851,3.21217 -0.0288,3.31397 2.07506,3.74829 3.13474,0.64714 4.17078,1.78253 4.17078,4.57073 0,4.58896 -0.10536,4.62222 -15,4.73455 -7.33333,0.0553 -16.64011,0.073 -20.68173,0.0392 l -7.3484,-0.0613 -1.07709,-2.16667 c -0.5924,-1.19166 -1.58392,-3.66666 -2.20338,-5.5 -0.61946,-1.83333 -1.36707,-3.93333 -1.66137,-4.66666 -0.29429,-0.73334 -1.05179,-2.68334 -1.68332,-4.33334 -0.63154,-1.65 -1.41745,-3.52093 -1.74648,-4.15762 -0.32903,-0.63669 -0.59823,-1.58738 -0.59823,-2.11264 0,-0.52526 -0.42225,-1.80433 -0.93833,-2.84238 -0.51608,-1.03804 -1.23017,-2.63736 -1.58686,-3.55402 -0.35669,-0.91667 -1.17035,-3.01667 -1.80814,-4.66667 -0.63779,-1.65 -1.40824,-3.6 -1.71211,-4.33333 -0.30387,-0.73334 -0.64296,-1.90154 -0.75353,-2.59602 -0.35578,-2.23466 -3.43198,-3.96744 -6.14111,-3.45921 l -2.39325,0.44898 v 17.23085 17.23085 l 1.61369,0.40501 c 0.88753,0.22276 2.06409,0.23218 2.61457,0.0209 0.55049,-0.21124 1.62433,-0.0504 2.38631,0.35738 1.14481,0.61269 1.38543,1.37784 1.38543,4.4056 0,2.33016 -0.30339,3.7711 -0.83334,3.95795 -0.45833,0.1616 -6.80105,0.37718 -14.09493,0.47907 -12.64791,0.17669 -13.30212,0.12337 -14.13692,-1.15231 z"
       id="path56" />
    <path
       style="fill:#ffffff"
       d="m 568.42728,823.27618 c 3.55971,-1.26568 7.70948,-4.97949 7.70948,-6.89955 0,-0.65545 0.3,-1.37714 0.66666,-1.60375 0.36667,-0.22661 0.66667,-3.06597 0.66667,-6.30968 0,-4.83621 -0.26997,-6.40511 -1.5,-8.71722 -1.68701,-3.17111 -4.52415,-5.55682 -7.5,-6.30664 -4.03407,-1.01646 -13.15401,-1.16113 -13.75184,-0.21815 -0.30859,0.48677 -0.56567,7.53502 -0.57128,15.6628 -0.008,11.20626 0.19119,14.85905 0.82312,15.11404 2.04554,0.82539 10.35991,0.3794 13.45719,-0.72185 z"
       id="path55" />
    <path
       style="fill:#ffffff"
       d="m 634.80342,834.9393 c 0,-0.76258 -1.26741,-6.72084 -2.65888,-12.49975 -0.309,-1.28334 -0.96779,-4.13334 -1.46397,-6.33334 -0.49618,-2.2 -1.23652,-4.57517 -1.64521,-5.27816 -0.65189,-1.12133 -0.83905,-0.87593 -1.52534,2 -1.1294,4.7328 -1.77493,7.31313 -3.23847,12.94483 -0.71465,2.75 -1.50093,6.125 -1.74729,7.5 l -0.44792,2.5 h 6.36354 c 4.6474,0 6.36354,-0.2248 6.36354,-0.83358 z"
       id="path54" />
    <path
       style="fill:#ffffff"
       d="m 764.13675,867.64595 c 5.49502,-2.31505 9.46936,-5.68464 11.64502,-9.87307 2.20389,-4.24278 2.35492,-4.63649 2.3622,-6.15762 0.004,-0.82998 0.45397,-2.98173 1,-4.78167 1.16012,-3.82424 1.43069,-29.24254 0.34787,-32.68004 -0.35471,-1.12604 -1.16009,-3.84734 -1.78975,-6.04734 -2.79932,-9.78078 -10.1901,-15.66666 -19.67233,-15.66666 -2.58103,0 -3.12309,0.24311 -3.786,1.69803 -0.87447,1.91927 -1.12641,72.07657 -0.26346,73.36867 0.26938,0.40335 0.93979,0.90811 1.48979,1.12168 1.30484,0.50667 6.54157,-0.0867 8.66666,-0.98198 z"
       id="path53" />
    <path
       style="fill:#000000"
       d="m 329.40392,876.98337 c -0.89354,-1.67079 -0.72989,-7.05064 0.23284,-7.65451 0.45834,-0.28748 1.34655,-0.43833 1.97382,-0.3352 2.01959,0.33202 3.78694,-1.15597 4.23974,-3.56958 0.24067,-1.28293 0.70358,-2.49698 1.02868,-2.69791 0.3251,-0.20092 0.5911,-1.5299 0.5911,-2.95329 0,-1.42339 0.26831,-2.7538 0.59624,-2.95648 0.32793,-0.20267 0.75022,-1.49538 0.93841,-2.87267 0.36535,-2.67379 1.63302,-7.64482 2.50868,-9.83752 0.29286,-0.73333 0.66146,-2.23333 0.8191,-3.33333 0.3527,-2.4611 1.79513,-8.19737 2.51457,-10 0.29268,-0.73333 0.68891,-2.23333 0.88052,-3.33333 0.73274,-4.20654 2.04682,-9.34721 2.47104,-9.66667 0.24345,-0.18333 0.59863,-1.53333 0.78928,-3 0.42955,-3.30447 1.63676,-8.22635 2.45273,-10 0.33738,-0.73333 0.75939,-2.38333 0.93781,-3.66667 0.60451,-4.34814 1.76703,-8.94208 2.43082,-9.60587 0.36344,-0.36343 0.6608,-1.78036 0.6608,-3.14873 0,-2.88234 1.71868,-4.40542 6.66666,-5.90792 1.65,-0.50104 3.3,-1.12239 3.66667,-1.38078 0.36666,-0.2584 1.285,-0.23499 2.04075,0.052 1.42343,0.54057 2.60338,3.5599 3.61595,9.25273 0.30052,1.68954 1.16706,5.47189 1.92564,8.40522 0.75859,2.93333 3.20395,12.98333 5.43414,22.33333 2.23019,9.35 4.76486,19.7 5.63262,23 0.86775,3.3 2.23571,8.85 3.03991,12.33334 0.8042,3.48333 1.90297,7.60833 2.44172,9.16666 0.88303,2.55416 1.19384,2.83334 3.15441,2.83334 1.26032,0 2.63883,0.51266 3.2782,1.21916 1.37976,1.52462 1.46795,6.31496 0.1366,7.41988 -1.29666,1.07614 -25.55046,0.98161 -26.85936,-0.10468 -0.59808,-0.49637 -0.83605,-1.89436 -0.70503,-4.14181 l 0.19778,-3.39255 2.66667,-0.33334 c 2.57157,-0.32144 2.66199,-0.41654 2.53554,-2.66666 -0.19119,-3.40218 -0.87045,-7.47047 -1.50269,-9 -0.30313,-0.73334 -1.10471,-3.80834 -1.7813,-6.83334 l -1.23015,-5.5 h -9.07066 -9.07066 l -0.74379,2.5 c -0.40909,1.375 -0.93395,3.7 -1.16637,5.16667 -0.23241,1.46667 -0.66017,2.96667 -0.95058,3.33333 -0.66785,0.84325 -1.40901,5.1041 -1.5655,9 -0.11923,2.96822 -0.0958,3.00235 2.21015,3.22114 1.28186,0.12162 2.70686,0.53336 3.16667,0.91496 0.93299,0.77432 1.12273,6.3796 0.2619,7.73697 -0.41486,0.65414 -3.35435,0.90489 -11.72264,1 -9.86965,0.11217 -11.2388,-0.004 -11.76943,-0.99591 z"
       id="path52" />
    <path
       style="fill:#ffffff"
       d="m 366.97173,831.60621 c -0.51649,-2.29166 -1.19608,-5.36666 -1.5102,-6.83333 -0.6796,-3.17313 -1.8715,-7.87519 -2.71584,-10.714 -0.33491,-1.12603 -0.60893,-2.70103 -0.60893,-3.5 0,-1.54544 -1.22416,-2.02021 -1.59692,-0.61933 -0.12196,0.45833 -0.58211,2.18333 -1.02256,3.83333 -0.44045,1.65 -1.05609,4.2 -1.36807,5.66667 -0.31199,1.46666 -1.06152,4.46666 -1.66563,6.66666 -0.6041,2.2 -1.33171,5.275 -1.61691,6.83334 l -0.51853,2.83333 h 6.78134 6.78133 z"
       id="path51" />
    <path
       style="fill:#000000"
       d="m 128.791,877.49378 c -0.35983,-0.35983 -0.65423,-2.23368 -0.65423,-4.16411 0,-3.86992 0.92401,-4.8851 4.45617,-4.89582 1.70217,-0.005 1.98706,-0.36252 3.05609,-3.83334 0.64842,-2.10519 1.17342,-4.44263 1.16667,-5.1943 -0.007,-0.75166 0.25701,-1.65166 0.58612,-2 0.32911,-0.34833 0.74449,-1.83333 0.92307,-3.3 0.17859,-1.46666 0.84393,-4.31666 1.47854,-6.33333 0.63462,-2.01667 1.29996,-4.86667 1.47854,-6.33333 0.17858,-1.46667 0.59397,-2.95167 0.92308,-3.3 0.32911,-0.34834 0.59838,-1.353 0.59838,-2.23258 0,-0.87959 0.42661,-2.54459 0.94802,-3.7 0.52142,-1.15542 1.09641,-3.15076 1.27778,-4.43409 0.5446,-3.85364 1.87515,-8.95802 2.51111,-9.63333 0.32804,-0.34834 0.59643,-1.37704 0.59643,-2.286 0,-0.90897 0.27235,-2.57397 0.60523,-3.7 1.46011,-4.93916 2.69361,-9.52995 3.05788,-11.38067 1.13543,-5.76876 1.74506,-8.00817 2.34276,-8.60587 0.36343,-0.36344 0.66079,-1.74423 0.66079,-3.06842 0,-1.46401 0.50856,-2.9535 1.29758,-3.80042 1.56316,-1.67785 9.5177,-4.44623 11.22165,-3.90542 1.41459,0.44898 2.25498,2.68126 3.78234,10.0468 0.60827,2.93333 1.51012,6.68333 2.0041,8.33333 0.49398,1.65 1.20939,4.35 1.5898,6 2.15672,9.35463 2.98236,12.79448 4.08037,17 0.67013,2.56667 2.04127,8.26667 3.047,12.66667 1.00572,4.4 2.40543,10.1 3.11047,12.66666 0.70504,2.56667 1.55714,6.16667 1.89356,8 0.33642,1.83334 1.22664,5.35834 1.97826,7.83334 1.35618,4.46573 1.38547,4.5008 3.84739,4.60574 3.4783,0.14827 9.75263,-0.18851 10.1257,-0.5435 0.46255,-0.44014 0.79451,-70.86838 0.34594,-73.39557 -0.36649,-2.06475 -0.52505,-2.16667 -3.37087,-2.16667 -2.59216,0 -3.0721,-0.22569 -3.63646,-1.71007 -0.96263,-2.53191 -0.78998,-5.3882 0.39746,-6.57565 1.36197,-1.36197 17.40915,-1.54221 19.07841,-0.21428 1.13434,0.90239 3.66252,5.49187 11.29272,20.5 2.70302,5.31666 5.07184,9.81666 5.26405,10 0.19221,0.18333 2.38013,4.38333 4.86206,9.33333 2.48192,4.95 5.69966,11.223 7.15053,13.94 l 2.63794,4.94 v -25.10667 -25.10666 h -3.58504 c -4.17562,0 -5.1634,-0.82671 -5.3345,-4.46468 -0.0781,-1.65977 0.29498,-2.91076 1.11146,-3.72724 1.16422,-1.16422 2.76325,-1.21636 30.35186,-0.98957 29.6986,0.24414 29.92783,0.26275 35.89031,2.91403 1.15541,0.51377 2.27458,0.93413 2.48705,0.93413 1.07846,0 7.70586,4.83935 9.74553,7.11622 5.03395,5.61938 9.33333,15.26506 9.33333,20.9394 0,1.65607 0.32168,3.33272 0.71483,3.72588 0.84344,0.84344 0.41348,18.81402 -0.61135,25.55183 -1.02741,6.75479 -4.82861,17.33333 -6.22841,17.33333 -0.29795,0 -0.5445,0.375 -0.54789,0.83333 -0.0133,1.80825 -9.32146,10.5 -11.24459,10.5 -0.37018,0 -1.80178,0.66597 -3.18135,1.47994 -4.19467,2.47491 -15.98573,3.80726 -30.56791,3.45405 -9.74013,-0.23592 -10.7641,-0.37617 -11.78843,-1.61458 -1.11712,-1.35061 -1.04098,-5.5773 0.12372,-6.86787 0.41389,-0.45862 3.60302,-0.94143 7.16471,-1.08469 0.65624,-0.0264 0.83334,-7.88493 0.83334,-36.97899 0,-20.32001 -0.1821,-37.42001 -0.40466,-38 -0.3327,-0.867 -1.62392,-1.05452 -7.26106,-1.05452 -6.6931,0 -6.86603,0.0383 -7.26048,1.60995 -0.22224,0.88547 -0.38889,19.82961 -0.37034,42.09807 0.0196,23.48711 -0.22104,40.74289 -0.57301,41.09486 -0.3337,0.3337 -2.22457,0.51457 -4.20193,0.40192 -2.98298,-0.16993 -3.70725,-0.46023 -4.25327,-1.7048 -0.36195,-0.825 -0.88695,-1.5 -1.16667,-1.5 -0.27972,0 -0.50858,-0.30147 -0.50858,-0.66994 0,-0.76439 -0.39966,-1.57649 -10.82542,-21.99673 -4.21211,-8.25 -10.66737,-20.90716 -14.34502,-28.12702 -3.67764,-7.21987 -6.87475,-12.9389 -7.10469,-12.70897 -0.22993,0.22994 -0.39342,13.11154 -0.36331,28.62578 0.05,25.76212 0.1523,28.2578 1.17993,28.78554 0.61885,0.31781 1.51628,0.438 1.99429,0.2671 0.47801,-0.1709 1.90301,-0.11677 3.16666,0.1203 l 2.29756,0.43102 v 3.93045 c 0,2.16174 -0.30193,4.11704 -0.67095,4.34511 -1.02176,0.63148 -49.44726,0.8569 -51.16238,0.23816 -1.31036,-0.47272 -1.5,-1.00889 -1.5,-4.2408 0,-3.3464 0.16135,-3.76102 1.68979,-4.34213 0.92938,-0.35335 1.90438,-0.6104 2.16666,-0.57122 1.93716,0.28939 2.27313,-0.17979 1.85227,-2.58665 -0.24043,-1.375 -0.60544,-3.85 -0.81114,-5.5 -0.2057,-1.65 -0.61496,-3.3 -0.90946,-3.66667 -0.29451,-0.36667 -0.73128,-1.86667 -0.9706,-3.33333 -0.23932,-1.46667 -0.78166,-3.94167 -1.2052,-5.5 l -0.77008,-2.83334 h -9.04003 -9.04004 l -1.14775,3.86632 c -0.63127,2.12648 -1.14776,4.35877 -1.14776,4.96066 0,0.60188 -0.3,1.27974 -0.66666,1.50636 -0.36667,0.22661 -0.66667,1.49802 -0.66667,2.82534 0,1.32733 -0.34389,3.36434 -0.7642,4.52668 -0.42031,1.16235 -0.56459,2.90864 -0.32063,3.88067 0.36712,1.46273 0.82052,1.76731 2.63086,1.76731 1.20302,0 2.5473,0.36 2.9873,0.8 0.87079,0.87078 1.08109,6.40186 0.28979,7.62174 -0.63579,0.98015 -22.56441,1.5703 -23.50222,0.63249 z"
       id="path50" />
    <path
       style="fill:#ffffff"
       d="m 167.15265,834.60621 c -0.25305,-0.64166 -0.71898,-2.51666 -1.0354,-4.16666 -1.22539,-6.38994 -1.96992,-9.40125 -2.6288,-10.63237 -0.37676,-0.70399 -0.68502,-2.33199 -0.68502,-3.61779 0,-1.2858 -0.3,-2.52323 -0.66666,-2.74984 -0.36667,-0.22661 -0.66667,-1.12661 -0.66667,-2 0,-2.86223 -1.14967,-2.37462 -1.99334,0.84544 -0.45457,1.73501 -1.07558,4.05456 -1.38002,5.15456 -0.30443,1.1 -1.02975,3.8 -1.61183,6 -0.58207,2.2 -1.34852,4.9213 -1.70323,6.04733 -0.3547,1.12603 -0.64491,3.00103 -0.64491,4.16667 v 2.11933 h 6.73799 c 6.14796,0 6.6977,-0.10216 6.27789,-1.16667 z"
       id="path49" />
    <path
       style="fill:#ffffff"
       d="m 295.31248,867.82849 c 0.63669,-0.33608 2.1125,-0.96414 3.27958,-1.3957 1.16708,-0.43155 3.56708,-2.20811 5.33333,-3.94792 3.62882,-3.57447 6.24214,-9.44766 7.43612,-16.71199 1.20208,-7.31362 1.57203,-20.56972 0.7256,-26 -0.42865,-2.75 -0.98995,-6.35 -1.24735,-8 -0.69793,-4.47406 -3.3202,-9.97784 -6.26073,-13.14043 -4.28657,-4.61028 -15.72296,-7.97887 -18.30893,-5.3929 -0.60288,0.60287 -0.8,9.85679 -0.8,37.55555 0,20.21556 0.2,36.95556 0.44444,37.2 0.66639,0.66639 8.06845,0.53517 9.39794,-0.16661 z"
       id="path48" />
    <path
       style="fill:#000000"
       d="m 78.136773,877.94668 c -15.24408,-0.21052 -15.33333,-0.23867 -15.33333,-4.83455 0,-2.87678 0.9649,-4.00592 3.42326,-4.00592 1.0028,0 2.5928,-0.29257 3.53334,-0.65016 l 1.71006,-0.65017 -0.009,-36.18317 c -0.005,-19.90074 -0.18999,-36.85816 -0.41109,-37.68316 -0.33872,-1.26394 -0.85817,-1.5 -3.30077,-1.5 -3.30625,0 -4.27904,-1.10323 -4.27904,-4.85285 0,-4.4137 0.30989,-4.48165 20.38583,-4.47063 19.493907,0.0107 23.291217,0.48517 29.940617,3.74107 1.95792,0.9587 4.6083,2.83193 5.88973,4.16275 2.9558,3.06969 6.45049,9.55362 6.45049,11.96802 0,1.0184 0.33091,2.18255 0.73536,2.58701 1.61657,1.61656 -0.9972,15.17945 -3.57124,18.53129 -0.28158,0.36667 -1.14291,1.50748 -1.91407,2.53513 -1.72971,2.30506 -8.16967,7.13154 -9.51558,7.13154 -0.54401,0 -1.15494,0.26831 -1.35762,0.59625 -0.54703,0.88511 -4.98064,1.46259 -15.043517,1.95941 l -9,0.44434 -0.17925,15.61955 c -0.18951,16.51398 -0.0938,17.0587 2.8664,16.31574 0.75069,-0.18841 2.17818,-0.0334 3.17221,0.34457 1.62957,0.61956 1.80731,1.01189 1.80731,3.98935 0,2.11313 -0.37724,3.67945 -1.04762,4.34984 -0.57619,0.57619 -1.10119,0.97919 -1.16667,0.89555 -0.0655,-0.0836 -6.26905,-0.237 -13.78571,-0.3408 z"
       id="path47" />
    <path
       style="fill:#ffffff"
       d="m 98.470103,826.85123 c 3.309937,-0.27023 8.195757,-2.45536 10.108857,-4.52109 3.93667,-4.25074 4.75236,-16.94433 1.48249,-23.07031 -1.62443,-3.04331 -5.00472,-5.48695 -7.59011,-5.48695 -0.87407,0 -1.77463,-0.3 -2.00124,-0.66666 -0.23211,-0.37557 -3.451367,-0.66667 -7.372677,-0.66667 h -6.96065 v 17.22222 c 0,9.47222 0.1643,17.38653 0.36512,17.58735 0.33123,0.33122 4.89665,0.17944 11.96821,-0.39789 z"
       id="path1" />
  </g>
</svg>
